<svg width="30" height="28" viewBox="0 0 30 28" fill="none" xmlns="http://www.w3.org/2000/svg">
<path d="M21.9097 27.5L19.4397 25.106C16.9824 26.9807 14.0437 27.918 10.6237 27.918C8.57171 27.918 6.78571 27.5887 5.26571 26.93C3.74571 26.246 2.56771 25.296 1.73171 24.08C0.921039 22.8387 0.515705 21.3947 0.515705 19.748C0.515705 18.076 0.959038 16.5687 1.84571 15.226C2.75771 13.858 4.11304 12.7433 5.91171 11.882C5.25304 11.0713 4.78437 10.2987 4.50571 9.564C4.22704 8.804 4.08771 7.98067 4.08771 7.094C4.08771 5.82733 4.41704 4.67467 5.07571 3.636C5.73437 2.59733 6.68437 1.78667 7.92571 1.204C9.19237 0.595999 10.687 0.291999 12.4097 0.291999C14.1577 0.291999 15.6397 0.608666 16.8557 1.242C18.0717 1.87533 18.9837 2.724 19.5917 3.788C20.1997 4.852 20.4784 6.01733 20.4277 7.284H14.3097C14.335 6.6 14.1577 6.08067 13.7777 5.726C13.423 5.346 12.9417 5.156 12.3337 5.156C11.7257 5.156 11.219 5.33333 10.8137 5.688C10.4084 6.04267 10.2057 6.49867 10.2057 7.056C10.2057 7.588 10.3704 8.14533 10.6997 8.728C11.0544 9.31067 11.599 9.982 12.3337 10.742L18.8317 17.088C18.8824 16.9613 18.9457 16.8093 19.0217 16.632C19.123 16.4547 19.2244 16.252 19.3257 16.024L20.7317 13.63H27.2297L25.4057 16.936C24.7217 18.4307 23.9364 19.8493 23.0497 21.192L29.4717 27.5H21.9097ZM10.9277 22.674C12.625 22.674 14.1324 22.1927 15.4497 21.23L9.52171 15.492C7.69771 16.4293 6.78571 17.696 6.78571 19.292C6.78571 20.2547 7.15304 21.0653 7.88771 21.724C8.64771 22.3573 9.66104 22.674 10.9277 22.674Z" fill="white"/>
</svg>
