<svg width="36" height="30" viewBox="0 0 36 30" fill="none" xmlns="http://www.w3.org/2000/svg">
<path d="M20.3148 8.25822C21.1298 9.76455 22.1251 11.0345 23.2161 12.1057H1H0.5V12.6057V16.9172V17.4172H1H23.7207C22.4417 18.5824 21.2628 20.0065 20.3325 21.7426C19.2806 23.6959 18.6529 25.8386 18.4564 28.1214L18.4133 28.6223L18.9144 28.6627L23.0872 28.9984L23.5823 29.0382L23.6254 28.5434C23.7653 26.937 24.2017 25.4405 24.9302 24.1004L24.9312 24.0986C27.1836 19.9149 31.6171 18.2134 34.1417 17.5696L34.5182 17.4736V17.0851V12.8973V12.5088L34.1417 12.4128C31.6164 11.7687 27.1836 10.076 24.9314 5.88409L24.6177 5.30029L24.6147 5.30317C24.0683 4.11875 23.7265 2.82659 23.6072 1.45661L23.5641 0.961775L23.069 1.00161L18.8963 1.33734L18.3949 1.37768L18.4382 1.87879C18.6347 4.15235 19.2623 6.30388 20.3143 8.25736L20.3148 8.25822Z" fill="white" stroke="white"/>
</svg>
