<svg width="272" height="187" viewBox="0 0 272 187" fill="none" xmlns="http://www.w3.org/2000/svg">
<path d="M139 172C163.853 172 184 167.523 184 162C184 156.477 163.853 152 139 152C114.147 152 94 156.477 94 162C94 167.523 114.147 172 139 172Z" fill="#CDCED6"/>
<path d="M190 140C198.004 139.131 217.81 129.315 233 97" stroke="url(#paint0_linear_262_4652)" stroke-width="4"/>
<path d="M206.8 34.4961H228C234.878 34.4961 240.437 40.018 240.437 46.8101V67.8146C240.437 74.6067 234.878 80.1286 228 80.1286H206.8C199.922 80.1286 194.362 74.6067 194.362 67.8146V46.8101C194.362 40.018 199.922 34.4961 206.8 34.4961Z" fill="#F0F6FF" stroke="#5094FA" stroke-width="2"/>
<path d="M217.4 58.9736C210.542 58.9736 204.987 64.1441 204.987 70.5225V70.585H229.818V70.5225C229.818 64.1441 224.258 58.9736 217.405 58.9736H217.4Z" fill="#74AAFB"/>
<path d="M218.356 56.7971C221.551 56.4066 223.838 53.9646 223.838 51.2258V49.6793C223.838 46.9405 221.551 44.4985 218.356 44.108C214.378 43.6237 210.967 46.2272 210.967 49.5075V51.3924C210.967 54.6727 214.378 57.2762 218.356 56.7919V56.7971Z" fill="#74AAFB"/>
<path d="M197.493 46.8286C202.183 46.8286 205.985 43.0614 205.985 38.4143C205.985 33.7672 202.183 30 197.493 30C192.802 30 189 33.7672 189 38.4143C189 43.0614 192.802 46.8286 197.493 46.8286Z" fill="#5094FA"/>
<path d="M194.082 38.0909L196.647 41.1005L201.14 35.9561" stroke="white" stroke-width="2" stroke-linecap="round" stroke-linejoin="round"/>
<path d="M48.9999 76.4619H27.8001C20.3786 76.4619 14.3623 82.4228 14.3623 89.7759V110.78C14.3623 118.134 20.3786 124.094 27.8001 124.094H48.9999C56.4214 124.094 62.4377 118.134 62.4377 110.78V89.7759C62.4377 82.4228 56.4214 76.4619 48.9999 76.4619Z" fill="white"/>
<path d="M38.4001 101.939C31.5419 101.939 25.9871 107.11 25.9871 113.488V113.551H50.8183V113.488C50.8183 107.11 45.2582 101.939 38.4053 101.939H38.4001Z" fill="#DCEAFE"/>
<path d="M39.3565 99.763C42.5517 99.3724 44.8377 96.9304 44.8377 94.1916V92.6452C44.8377 89.9063 42.5517 87.4643 39.3565 87.0738C35.3782 86.5896 31.9675 89.193 31.9675 92.4733V94.3582C31.9675 97.6386 35.3782 100.242 39.3565 99.7578V99.763Z" fill="#DCEAFE"/>
<path d="M18.4926 89.8286C23.1829 89.8286 26.9851 86.0614 26.9851 81.4143C26.9851 76.7672 23.1829 73 18.4926 73C13.8022 73 10 76.7672 10 81.4143C10 86.0614 13.8022 89.8286 18.4926 89.8286Z" fill="#BAD5FD"/>
<path d="M22.4498 80.3848H14.5406C13.9659 80.3848 13.5 80.8463 13.5 81.4157C13.5 81.9851 13.9659 82.4467 14.5406 82.4467H22.4498C23.0244 82.4467 23.4903 81.9851 23.4903 81.4157C23.4903 80.8463 23.0244 80.3848 22.4498 80.3848Z" fill="white"/>
<path d="M19.533 85.3292V77.4929C19.533 76.9235 19.0671 76.4619 18.4924 76.4619C17.9177 76.4619 17.4519 76.9235 17.4519 77.4929V85.3292C17.4519 85.8986 17.9177 86.3602 18.4924 86.3602C19.0671 86.3602 19.533 85.8986 19.533 85.3292Z" fill="white"/>
<rect x="136" y="157" width="108" height="6" rx="3" fill="#A9ABB8"/>
<path d="M207.808 98.1603C207.808 135.802 177.006 166.321 139.014 166.321C101.022 166.321 70.22 135.802 70.22 98.1603C70.22 60.5181 101.022 30 139.014 30C177.006 30 207.808 60.5181 207.808 98.1603Z" fill="#F5535E"/>
<path d="M193.888 98.1607C193.888 128.188 169.32 152.53 139.014 152.53C108.708 152.53 84.134 128.188 84.134 98.1607C84.134 68.1337 108.702 43.792 139.014 43.792C169.326 43.792 193.888 68.1337 193.888 98.1607Z" fill="white"/>
<path d="M179.969 98.1602C179.969 120.572 161.634 138.743 139.008 138.743C116.382 138.743 98.0479 120.572 98.0479 98.1602C98.0479 75.7482 116.388 57.5771 139.008 57.5771C161.629 57.5771 179.969 75.7424 179.969 98.1602Z" fill="#F5535E"/>
<path d="M166.049 98.1606C166.049 112.957 153.943 124.952 139.008 124.952C124.074 124.952 111.968 112.957 111.968 98.1606C111.968 83.3638 124.074 71.3691 139.008 71.3691C153.943 71.3691 166.049 83.3638 166.049 98.1606Z" fill="white"/>
<path d="M152.129 98.1601C152.129 105.342 146.257 111.16 139.008 111.16C131.76 111.16 125.887 105.342 125.887 98.1601C125.887 90.9784 131.76 85.1602 139.008 85.1602C146.257 85.1602 152.129 90.9784 152.129 98.1601Z" fill="#F5535E"/>
<path d="M77.3755 53.8102L71.958 49.9102L74.5355 39.6489C74.9496 38.0022 76.9148 37.2973 78.2968 38.2911L80.816 40.1053L77.3696 53.8044L77.3755 53.8102Z" fill="#5094FA"/>
<path d="M82.7927 57.7055L77.3752 53.8113L80.8217 40.1064L86.2333 44.0064L82.7927 57.7055Z" fill="#97BFFC"/>
<path d="M88.2046 61.6049L82.793 57.7049L86.2335 44.0059L91.651 47.9001L88.2046 61.6049Z" fill="#5094FA"/>
<path d="M93.6218 65.4985L88.2043 61.5985L91.6508 47.8994L93.9134 49.5287C95.8203 50.9039 96.695 53.2843 96.1235 55.5492L93.6218 65.4985Z" fill="#97BFFC"/>
<path d="M77.3753 53.8101L71.9579 49.9102L62.9074 55.5146C61.4554 56.4159 61.3854 58.4844 62.7675 59.4781L65.2867 61.2924L77.3695 53.8101H77.3753Z" fill="#5094FA"/>
<path d="M82.7928 57.7048L77.3753 53.8105L65.2866 61.2927L70.7041 65.1927L82.7928 57.7048Z" fill="#97BFFC"/>
<path d="M88.2044 61.6041L82.7928 57.7041L70.7041 65.1921L76.1216 69.0863L88.2044 61.6041Z" fill="#5094FA"/>
<path d="M93.6216 65.4986L88.2042 61.5986L76.1213 69.0808L78.384 70.7102C80.2909 72.0853 82.8509 72.1719 84.8452 70.9355L93.6216 65.4986Z" fill="#97BFFC"/>
<path d="M69.4971 48.1426L139.008 98.1607" stroke="#5094FA" stroke-width="5" stroke-linecap="round" stroke-linejoin="round"/>
<path d="M207.808 98.1603C207.808 135.802 177.006 166.321 139.014 166.321C101.022 166.321 70.22 135.802 70.22 98.1603C70.22 60.5181 101.022 30 139.014 30C177.006 30 207.808 60.5181 207.808 98.1603Z" fill="url(#paint1_radial_262_4652)"/>
<path d="M54.7998 108.496H75.9997C82.8776 108.496 88.4375 114.018 88.4375 120.81V141.815C88.4375 148.607 82.8776 154.129 75.9997 154.129H54.7998C47.9219 154.129 42.3621 148.607 42.3621 141.815V120.81C42.3621 114.018 47.9219 108.496 54.7998 108.496Z" fill="#F0F6FF" stroke="#5094FA" stroke-width="2"/>
<path d="M65.3998 132.974C58.5417 132.974 52.9868 138.144 52.9868 144.522V144.585H77.8181V144.522C77.8181 138.144 72.258 132.974 65.4051 132.974H65.3998Z" fill="#74AAFB"/>
<path d="M66.3562 130.797C69.5515 130.407 71.8375 127.965 71.8375 125.226V123.679C71.8375 120.941 69.5515 118.498 66.3562 118.108C62.378 117.624 58.9673 120.227 58.9673 123.508V125.392C58.9673 128.673 62.378 131.276 66.3562 130.792V130.797Z" fill="#74AAFB"/>
<path d="M45.4926 120.829C50.1829 120.829 53.9851 117.061 53.9851 112.414C53.9851 107.767 50.1829 104 45.4926 104C40.8022 104 37 107.767 37 112.414C37 117.061 40.8022 120.829 45.4926 120.829Z" fill="#5094FA"/>
<path d="M42.082 112.091L44.6466 115.1L49.1399 109.956" stroke="white" stroke-width="2" stroke-linecap="round" stroke-linejoin="round"/>
<path d="M208 145C208 141.686 210.686 139 214 139V139C217.314 139 220 141.686 220 145V157H208V145Z" fill="#74AAFB"/>
<path d="M225 126C225 122.686 227.686 120 231 120V120C234.314 120 237 122.686 237 126V157H225V126Z" fill="#5094FA"/>
<path d="M191 152C191 148.686 193.686 146 197 146V146C200.314 146 203 148.686 203 152V157H191V152Z" fill="#97BFFC"/>
<path d="M233.664 93.8963C234.081 93.6161 234.649 93.8535 234.743 94.3471L236.051 101.257C236.155 101.805 235.608 102.248 235.094 102.033L227.947 99.0448C227.432 98.8297 227.363 98.1288 227.826 97.8179L233.664 93.8963Z" fill="#75ABFC"/>
<defs>
<linearGradient id="paint0_linear_262_4652" x1="227" y1="102" x2="192" y2="145" gradientUnits="userSpaceOnUse">
<stop stop-color="#74AAFB"/>
<stop offset="1" stop-color="#74AAFB" stop-opacity="0"/>
</linearGradient>
<radialGradient id="paint1_radial_262_4652" cx="0" cy="0" r="1" gradientUnits="userSpaceOnUse" gradientTransform="translate(114.421 42.6212) rotate(69.2737) scale(126.237 127.376)">
<stop offset="0.535979" stop-color="#F5535E" stop-opacity="0"/>
<stop offset="1" stop-color="#682D31" stop-opacity="0.25"/>
</radialGradient>
</defs>
</svg>
