<svg width="264" height="179" viewBox="0 0 264 179" fill="none" xmlns="http://www.w3.org/2000/svg">
<path d="M129.778 164.974C170.404 164.974 203.338 132.433 203.338 92.2911C203.338 52.1496 170.404 19.6084 129.778 19.6084C89.1523 19.6084 56.2185 52.1496 56.2185 92.2911C56.2185 132.433 89.1523 164.974 129.778 164.974Z" fill="#FFCA28"/>
<path d="M129.778 144.485C158.952 144.485 182.601 121.117 182.601 92.2911C182.601 63.4655 158.952 40.0977 129.778 40.0977C100.605 40.0977 76.9551 63.4655 76.9551 92.2911C76.9551 121.117 100.605 144.485 129.778 144.485Z" fill="#FFC107"/>
<path d="M99.9881 73.4649C87.9166 75.2692 79.5586 85.8575 80.5407 96.7642C81.3796 106.094 88.9191 114.145 99.0163 115.98H163.435C172.852 114.62 179.762 106.655 179.722 97.7245C179.676 88.0459 171.471 79.7067 161.123 79.4692C162.136 73.8743 159.906 68.1884 155.369 64.8174C148.689 59.8543 140.929 62.821 140.54 62.9777C134.504 55.4875 124.474 52.4298 115.502 55.2904C107.364 57.8832 101.349 64.9387 99.983 73.4649H99.9881Z" fill="url(#paint0_linear_262_4743)"/>
<path d="M129.341 173.406C174.921 173.406 212.069 137.09 212.311 92.2921C212.554 47.4944 175.8 11.1787 130.219 11.1787C84.6386 11.1787 47.4913 47.4944 47.2486 92.2921C47.0059 137.09 83.7598 173.406 129.341 173.406Z" stroke="#FFF8E1" stroke-width="1.68" stroke-miterlimit="10" stroke-linecap="round" stroke-dasharray="5 7"/>
<path fill-rule="evenodd" clip-rule="evenodd" d="M112.392 103.041L127.789 88.1817C128.98 87.0345 130.878 87.0345 132.07 88.1817L147.466 103.041C148.387 103.935 147.747 105.482 146.459 105.482H141.226V115.98H118.638V105.482H113.4C112.106 105.482 111.472 103.93 112.392 103.041Z" fill="url(#paint1_linear_262_4743)"/>
<g clip-path="url(#clip0_262_4743)">
<path d="M44.1851 129.529C38.6281 130.61 34.7202 135.446 35.0127 140.784C35.2989 145.949 39.4433 150.277 44.8696 151H74.2473C80.3705 150.707 85.1807 145.692 84.994 139.841C84.8011 133.954 79.6238 129.225 73.4632 129.344C72.9965 121.744 66.2759 115.827 58.4788 116C50.8621 116.179 44.5335 122.108 44.1851 129.529Z" fill="url(#paint2_linear_262_4743)"/>
</g>
<g clip-path="url(#clip1_262_4743)">
<path d="M180.98 37.437C176.757 38.2707 173.787 42.0015 174.009 46.1192C174.227 50.1033 177.377 53.4426 181.501 53.9999H203.828C208.481 53.7742 212.137 49.9053 211.995 45.3914C211.849 40.85 207.914 37.2021 203.232 37.2942C202.877 31.4308 197.77 26.8664 191.844 26.9999C186.055 27.1381 181.245 31.7118 180.98 37.437Z" fill="url(#paint3_linear_262_4743)"/>
</g>
<defs>
<linearGradient id="paint0_linear_262_4743" x1="130.092" y1="87.5" x2="130.092" y2="203" gradientUnits="userSpaceOnUse">
<stop stop-color="white"/>
<stop offset="1" stop-color="white" stop-opacity="0"/>
</linearGradient>
<linearGradient id="paint1_linear_262_4743" x1="129.929" y1="83" x2="129.929" y2="176" gradientUnits="userSpaceOnUse">
<stop stop-color="#FFC107"/>
<stop offset="1" stop-color="#FFCA28"/>
</linearGradient>
<linearGradient id="paint2_linear_262_4743" x1="59.9983" y1="115.996" x2="59.9983" y2="151" gradientUnits="userSpaceOnUse">
<stop offset="0.5" stop-color="white"/>
<stop offset="1" stop-color="white" stop-opacity="0.5"/>
</linearGradient>
<linearGradient id="paint3_linear_262_4743" x1="192.999" y1="26.9971" x2="192.999" y2="53.9999" gradientUnits="userSpaceOnUse">
<stop offset="0.5" stop-color="white"/>
<stop offset="1" stop-color="white" stop-opacity="0.5"/>
</linearGradient>
<clipPath id="clip0_262_4743">
<rect width="50" height="35" fill="white" transform="translate(35 116)"/>
</clipPath>
<clipPath id="clip1_262_4743">
<rect width="38" height="27" fill="white" transform="translate(174 27)"/>
</clipPath>
</defs>
</svg>
