<svg width="264" height="179" viewBox="0 0 264 179" fill="none" xmlns="http://www.w3.org/2000/svg">
<path d="M131.749 170C174.268 170 208.736 165.999 208.736 161.064C208.736 156.129 174.268 152.128 131.749 152.128C89.2298 152.128 54.7615 156.129 54.7615 161.064C54.7615 165.999 89.2298 170 131.749 170Z" fill="#3E404C"/>
<path d="M119.381 60.8622V56.1167C119.381 53.619 117.36 51.5931 114.869 51.5931H109.855C108.208 51.5931 106.778 50.46 106.391 48.855C105.482 45.1085 104.043 41.5702 102.151 38.3325C101.33 36.9264 101.551 35.1457 102.7 33.994L105.966 30.7193C107.728 28.9525 107.728 26.0894 105.966 24.3272L102.617 20.9692C100.855 19.2024 97.9994 19.2024 96.2419 20.9692L93.105 24.1144C91.9379 25.2846 90.1296 25.4928 88.7226 24.6325C85.415 22.6066 81.78 21.0571 77.9188 20.0858C76.3366 19.688 75.2248 18.2588 75.2248 16.6215V12.5235C75.2248 10.0259 73.2043 8 70.7132 8H65.9803C63.4892 8 61.4733 10.0259 61.4733 12.5235V16.6215C61.4733 18.2681 60.3477 19.6927 58.7562 20.0951C54.849 21.0803 51.177 22.6575 47.8371 24.7203C46.4163 25.5945 44.5942 25.4049 43.4178 24.2208L40.6546 21.4503C38.8924 19.6834 36.0369 19.6834 34.2794 21.4503L30.9303 24.8082C29.1681 26.5751 29.1681 29.4381 30.9303 31.2003L35.8939 36.1818C33.2138 40.1549 31.2394 44.6506 30.1507 49.484C29.7817 51.1167 28.3424 52.2777 26.6725 52.2777H22.4976C20.0066 52.2777 17.9861 54.3035 17.9861 56.8012V61.5467C17.9861 64.0444 20.0066 66.0656 22.4976 66.0656H27.1753C28.776 66.0656 30.1784 67.134 30.6074 68.6789C31.6407 72.4161 33.2138 75.9267 35.2343 79.1227C36.1292 80.5427 35.9401 82.3882 34.7545 83.5769L31.4008 86.9394C29.6386 88.7063 29.6386 91.5693 31.4008 93.3316L34.7499 96.6895C36.5121 98.4563 39.3676 98.4563 41.1251 96.6895L44.8525 92.9523C45.9873 91.8145 47.7356 91.5832 49.1334 92.3741C52.298 94.1687 55.7393 95.5286 59.3744 96.3842C60.9935 96.7635 62.1422 98.202 62.1422 99.8671V105.14C62.1422 107.638 64.1627 109.663 66.6491 109.663H71.3821C73.8732 109.663 75.8937 107.638 75.8937 105.14V99.5248C75.8937 97.9059 76.9778 96.4952 78.5416 96.0743C82.0798 95.1215 85.4197 93.6785 88.4873 91.8283C89.8989 90.9773 91.698 91.1854 92.8605 92.351L96.7124 96.2131C98.4746 97.9799 101.33 97.9799 103.088 96.2131L106.437 92.8552C108.199 91.0883 108.199 88.2253 106.437 86.463L102.548 82.5639C101.39 81.403 101.178 79.6084 102.013 78.1977C103.863 75.0756 105.293 71.6761 106.229 68.0776C106.64 66.5004 108.051 65.3949 109.68 65.3949H114.86C117.351 65.3949 119.372 63.3691 119.372 60.8761M70.8193 82.3604C55.481 83.8821 42.6982 71.0655 44.2159 55.6865C45.3415 44.3083 54.5214 35.1041 65.8695 33.9755C81.2079 32.4538 93.9907 45.2704 92.473 60.6494C91.3474 72.0276 82.1675 81.2319 70.8193 82.3604Z" fill="url(#paint0_linear_262_4649)"/>
<path d="M65.5514 43.3828H198.998C201.701 43.3828 203.897 45.5844 203.897 48.2948V134.871H60.6523V48.2948C60.6523 45.5844 62.8482 43.3828 65.5514 43.3828Z" fill="url(#paint1_linear_262_4649)"/>
<path d="M196.613 47.9209H67.9409C66.7256 47.9209 65.7405 48.9087 65.7405 50.1272V127.67C65.7405 128.888 66.7256 129.876 67.9409 129.876H196.613C197.828 129.876 198.813 128.888 198.813 127.67V50.1272C198.813 48.9087 197.828 47.9209 196.613 47.9209Z" fill="url(#paint2_linear_262_4649)"/>
<path d="M66.5848 145.472H198.038C201.189 145.472 203.74 142.914 203.74 139.755V135.13H60.8784V139.755C60.8784 142.914 63.4294 145.472 66.5801 145.472" fill="#E1E1E8"/>
<path d="M157.886 158.78H106.737L112.932 145.473H151.686L157.886 158.78Z" fill="#CDCED6"/>
<path d="M166.526 162.595H98.0964V161.582C98.0964 159.746 99.4527 158.257 101.127 158.257H163.496C165.17 158.257 166.526 159.746 166.526 161.582V162.595Z" fill="#E1E1E8"/>
<mask id="mask0_262_4649" style="mask-type:luminance" maskUnits="userSpaceOnUse" x="109" y="145" width="46" height="8">
<path d="M154.786 145.473H109.832V152.124H154.786V145.473Z" fill="white"/>
</mask>
<g mask="url(#mask0_262_4649)">
<path d="M112.932 145.473L109.832 152.128H154.786L151.691 145.473H112.932Z" fill="url(#paint3_linear_262_4649)"/>
</g>
<path d="M134.051 71.0146H122.14C120.616 71.0146 119.381 72.2519 119.381 73.7782C119.381 75.3045 120.616 76.5418 122.14 76.5418H134.051C135.574 76.5418 136.809 75.3045 136.809 73.7782C136.809 72.2519 135.574 71.0146 134.051 71.0146Z" fill="#5094FA"/>
<path d="M134.051 101.497H122.14C120.616 101.497 119.381 102.734 119.381 104.261C119.381 105.787 120.616 107.024 122.14 107.024H134.051C135.574 107.024 136.809 105.787 136.809 104.261C136.809 102.734 135.574 101.497 134.051 101.497Z" fill="#5094FA"/>
<path d="M142.764 91.1211H130.854C129.33 91.1211 128.095 92.3584 128.095 93.8847C128.095 95.411 129.33 96.6483 130.854 96.6483H142.764C144.288 96.6483 145.523 95.411 145.523 93.8847C145.523 92.3584 144.288 91.1211 142.764 91.1211Z" fill="#5094FA"/>
<path d="M110.376 81.125H98.4654C96.9419 81.125 95.7068 82.3623 95.7068 83.8886C95.7068 85.4149 96.9419 86.6522 98.4654 86.6522H110.376C111.9 86.6522 113.135 85.4149 113.135 83.8886C113.135 82.3623 111.9 81.125 110.376 81.125Z" fill="#F5535E"/>
<path d="M153.656 71.0146H141.745C140.222 71.0146 138.987 72.2519 138.987 73.7782C138.987 75.3045 140.222 76.5418 141.745 76.5418H153.656C155.18 76.5418 156.415 75.3045 156.415 73.7782C156.415 72.2519 155.18 71.0146 153.656 71.0146Z" fill="#FFD54F"/>
<path d="M103.323 60.9043H78.3294C76.8059 60.9043 75.5708 62.1416 75.5708 63.6679C75.5708 65.1942 76.8059 66.4315 78.3294 66.4315H103.323C104.846 66.4315 106.082 65.1942 106.082 63.6679C106.082 62.1416 104.846 60.9043 103.323 60.9043Z" fill="#E8E8EE"/>
<path d="M114.288 71.0146H89.2947C87.7712 71.0146 86.5361 72.2519 86.5361 73.7782C86.5361 75.3045 87.7712 76.5418 89.2947 76.5418H114.288C115.812 76.5418 117.047 75.3045 117.047 73.7782C117.047 72.2519 115.812 71.0146 114.288 71.0146Z" fill="#FFD54F"/>
<path d="M114.288 101.497H89.2947C87.7712 101.497 86.5361 102.734 86.5361 104.261C86.5361 105.787 87.7712 107.024 89.2947 107.024H114.288C115.812 107.024 117.047 105.787 117.047 104.261C117.047 102.734 115.812 101.497 114.288 101.497Z" fill="#FFD54F"/>
<path d="M123.459 91.1211H98.4654C96.9419 91.1211 95.7068 92.3584 95.7068 93.8847C95.7068 95.411 96.9419 96.6483 98.4654 96.6483H123.459C124.982 96.6483 126.217 95.411 126.217 93.8847C126.217 92.3584 124.982 91.1211 123.459 91.1211Z" fill="#F5535E"/>
<path d="M136.795 60.9043H111.802C110.278 60.9043 109.043 62.1416 109.043 63.6679C109.043 65.1942 110.278 66.4315 111.802 66.4315H136.795C138.319 66.4315 139.554 65.1942 139.554 63.6679C139.554 62.1416 138.319 60.9043 136.795 60.9043Z" fill="#E8E8EE"/>
<path d="M242.955 38.1709H164.52C162.841 38.1709 161.48 39.5356 161.48 41.2189V94.2846C161.48 95.968 162.841 97.3327 164.52 97.3327H242.955C244.634 97.3327 245.995 95.968 245.995 94.2846V41.2189C245.995 39.5356 244.634 38.1709 242.955 38.1709Z" fill="#858899"/>
<path d="M161.48 51.126H245.995V94.4601C245.995 96.0466 244.713 97.3324 243.131 97.3324H164.344C162.762 97.3324 161.48 96.0466 161.48 94.4601V51.126Z" fill="url(#paint4_linear_262_4649)"/>
<path d="M189.489 64.5232C190.643 63.4706 192.061 63.5755 193.057 64.5738C194.027 65.5721 194.236 67.2033 193.082 68.1798L186.365 73.8873L193.082 79.5948C194.236 80.5678 194.027 82.199 193.057 83.2009C192.061 84.1991 190.643 84.304 189.489 83.2551L181.25 75.7826C180.514 75.099 180.359 74.495 180.359 73.9163C180.359 73.3376 180.518 72.6793 181.25 71.9957L189.489 64.5232Z" fill="#A9ABB8"/>
<path d="M209.24 62.7867C208.98 62.2405 208.483 61.839 207.79 61.622C206.931 61.3724 205.362 61.3073 204.489 63.6547L197.877 81.4644C197.538 82.3795 197.516 83.1716 197.812 83.8154C198.075 84.3832 198.584 84.7992 199.287 85.0234C199.518 85.0885 199.796 85.1428 200.099 85.1428C200.947 85.1428 201.975 84.7232 202.61 82.9871L209.179 65.1232C209.514 64.1972 209.536 63.4124 209.24 62.783V62.7867Z" fill="#A9ABB8"/>
<path d="M225.803 71.9918C226.538 72.6754 226.694 73.3083 226.694 73.9124C226.694 74.5164 226.535 75.0951 225.803 75.7787L217.563 83.2512C216.409 84.3037 214.991 84.1989 213.996 83.197C213.025 82.1987 212.816 80.5675 213.97 79.5909L220.662 73.8834L213.97 68.1759C212.816 67.203 213.025 65.5718 213.996 64.5699C214.991 63.5716 216.409 63.4667 217.563 64.5192L225.803 71.9918Z" fill="#A9ABB8"/>
<path d="M181.482 44.4475C181.482 45.9877 180.236 47.2319 178.705 47.2319C177.173 47.2319 175.923 45.9877 175.923 44.4475C175.923 42.9073 177.169 41.6631 178.705 41.6631C180.241 41.6631 181.482 42.9073 181.482 44.4475Z" fill="#525463"/>
<path d="M172.445 44.4475C172.445 45.9877 171.199 47.2319 169.668 47.2319C168.136 47.2319 166.886 45.9877 166.886 44.4475C166.886 42.9073 168.132 41.6631 169.668 41.6631C171.204 41.6631 172.445 42.9073 172.445 44.4475Z" fill="#525463"/>
<path d="M190.939 44.4475C190.939 45.9877 189.693 47.2319 188.162 47.2319C186.63 47.2319 185.38 45.9877 185.38 44.4475C185.38 42.9073 186.625 41.6631 188.162 41.6631C189.698 41.6631 190.939 42.9073 190.939 44.4475Z" fill="#525463"/>
<defs>
<linearGradient id="paint0_linear_262_4649" x1="46.0405" y1="21.4229" x2="91.5539" y2="98.9098" gradientUnits="userSpaceOnUse">
<stop stop-color="#525463"/>
<stop offset="1" stop-color="#525463" stop-opacity="0"/>
</linearGradient>
<linearGradient id="paint1_linear_262_4649" x1="65.0871" y1="-30" x2="133.285" y2="134.452" gradientUnits="userSpaceOnUse">
<stop stop-color="#858899"/>
<stop offset="1" stop-color="#525463"/>
</linearGradient>
<linearGradient id="paint2_linear_262_4649" x1="142.573" y1="154.726" x2="109.965" y2="-9.96595" gradientUnits="userSpaceOnUse">
<stop stop-color="#2B2D36"/>
<stop offset="1" stop-color="#2B2D36" stop-opacity="0"/>
</linearGradient>
<linearGradient id="paint3_linear_262_4649" x1="132.309" y1="145.473" x2="132.309" y2="152.128" gradientUnits="userSpaceOnUse">
<stop stop-color="#E1E1E8"/>
<stop offset="1" stop-color="#E1E1E8" stop-opacity="0"/>
</linearGradient>
<linearGradient id="paint4_linear_262_4649" x1="203.738" y1="67.5" x2="203.738" y2="97.3324" gradientUnits="userSpaceOnUse">
<stop stop-color="#E8E8EE"/>
<stop offset="1" stop-color="#CDCED6"/>
</linearGradient>
</defs>
</svg>
