<svg width="264" height="179" viewBox="0 0 264 179" fill="none" xmlns="http://www.w3.org/2000/svg">
<ellipse cx="135" cy="157" rx="109" ry="10" fill="#5094FA"/>
<path fill-rule="evenodd" clip-rule="evenodd" d="M232.496 135.311H213.214L217.358 118.947H228.352L232.496 135.311Z" fill="#124187"/>
<path d="M224.847 75.6348H221.027V124.4H224.847V75.6348Z" fill="#124187"/>
<path fill-rule="evenodd" clip-rule="evenodd" d="M230.582 118.948C230.582 114.615 227.241 111.086 222.937 111.086C218.633 111.086 215.292 114.615 215.292 118.948C215.292 123.281 218.633 126.645 222.937 126.645C227.241 126.645 230.582 123.116 230.582 118.948Z" fill="#1959B8"/>
<path fill-rule="evenodd" clip-rule="evenodd" d="M23 74.3512L133.416 32L243.996 74.3512L187.747 96.0057V79.0024C187.747 66.4894 159.549 60.7156 133.412 60.7156C107.276 60.7156 79.0777 66.4932 79.0777 79.0024V96.0057L23 74.3512Z" fill="url(#paint0_linear_262_4667)"/>
<path fill-rule="evenodd" clip-rule="evenodd" d="M120.672 100.017C124.66 99.6956 128.964 99.5386 133.42 99.5386C137.876 99.5386 142.344 99.6995 146.169 100.017C161.307 100.818 179.311 103.385 189.193 108.841V78.8419C189.193 66.0109 160.352 60.0762 133.424 60.0762C106.496 60.0762 77.8181 66.0109 77.8181 78.8419V108.841C87.6972 103.385 105.545 100.818 120.679 100.017H120.672Z" fill="#317EF2"/>
<path fill-rule="evenodd" clip-rule="evenodd" d="M207.502 124.778H124.808C119.07 124.778 114.377 131.801 114.377 140.387C114.377 148.973 119.073 155.996 124.808 155.996H207.502C213.236 155.996 217.932 148.973 217.932 140.387C217.932 131.801 213.236 124.778 207.502 124.778Z" fill="#1D6CE0"/>
<path fill-rule="evenodd" clip-rule="evenodd" d="M183.481 124.778H153.829C159.568 124.778 164.26 131.805 164.26 140.387C164.26 148.973 159.564 155.996 153.829 155.996H183.481C189.22 155.996 193.912 148.973 193.912 140.387C193.912 131.801 189.216 124.778 183.481 124.778Z" fill="#1959B8"/>
<path fill-rule="evenodd" clip-rule="evenodd" d="M128.667 151.241H50.4375C53.6798 145.652 54.947 137.713 50.4375 129.537H128.663C131.281 129.537 133.431 134.426 133.431 140.391C133.431 146.357 131.285 151.245 128.663 151.245" fill="white"/>
<path fill-rule="evenodd" clip-rule="evenodd" d="M53.3601 140.809C53.4172 137.257 52.58 133.422 50.4375 129.537H128.667C131.285 129.537 133.435 134.426 133.435 140.387C133.435 140.529 133.435 140.667 133.431 140.809H53.3601Z" fill="#E1E1E8"/>
<path fill-rule="evenodd" clip-rule="evenodd" d="M47.9944 156H128.926C132.697 156 136.685 148.881 136.685 140.295C136.685 131.709 132.697 124.778 128.926 124.778H47.9944L48.0286 129.456L128.663 129.537C131.281 129.537 133.431 134.426 133.431 140.391C133.431 146.356 131.285 151.245 128.663 151.245L48.0286 151.164L47.9944 156Z" fill="#1959B8"/>
<path fill-rule="evenodd" clip-rule="evenodd" d="M123.077 134.3H114.123C110.686 136.235 111.679 143.897 109.64 148.916L114.929 144.771L118.765 148.648C121.741 144.096 120.036 136.334 123.077 134.296" fill="#1D6CE0"/>
<path fill-rule="evenodd" clip-rule="evenodd" d="M58.4252 93.5615H141.119C146.857 93.5615 151.549 100.584 151.549 109.17C151.549 117.756 146.853 124.779 141.119 124.779H58.4252C52.6904 124.779 47.9944 117.756 47.9944 109.17C47.9944 100.584 52.6904 93.5615 58.4252 93.5615Z" fill="#FAA55C"/>
<path fill-rule="evenodd" clip-rule="evenodd" d="M82.4494 93.5615H112.102C106.363 93.5615 101.671 100.588 101.671 109.17C101.671 117.756 106.367 124.779 112.102 124.779H82.4494C76.7107 124.779 72.0186 117.756 72.0186 109.17C72.0186 100.584 76.7145 93.5615 82.4494 93.5615Z" fill="#F57D14"/>
<path fill-rule="evenodd" clip-rule="evenodd" d="M137.264 120.024H215.489C212.247 114.434 210.98 106.495 215.489 98.3193H137.264C134.645 98.3193 132.495 103.208 132.495 109.173C132.495 115.139 134.642 120.027 137.264 120.027" fill="white"/>
<path fill-rule="evenodd" clip-rule="evenodd" d="M212.567 109.591C212.509 106.039 213.347 102.204 215.489 98.3193H137.26C134.642 98.3193 132.491 103.208 132.491 109.17C132.491 109.311 132.491 109.449 132.495 109.591H212.563H212.567Z" fill="#E1E1E8"/>
<path fill-rule="evenodd" clip-rule="evenodd" d="M217.936 124.779H137.005C133.234 124.779 129.245 117.66 129.245 109.074C129.245 100.488 133.234 93.5576 137.005 93.5576H217.936L217.902 98.2356L137.267 98.3161C134.649 98.3161 132.499 103.205 132.499 109.17C132.499 115.135 134.645 120.024 137.267 120.024L217.902 119.944L217.936 124.779Z" fill="#F57D14"/>
<path fill-rule="evenodd" clip-rule="evenodd" d="M149.167 109.592H158.122C161.558 110.619 160.565 114.691 162.604 117.358L157.315 115.155L153.479 117.216C150.503 114.798 152.208 110.672 149.167 109.588" fill="#F57D14"/>
<defs>
<linearGradient id="paint0_linear_262_4667" x1="130" y1="32" x2="130" y2="139" gradientUnits="userSpaceOnUse">
<stop stop-color="#1D6CE0"/>
<stop offset="1" stop-color="#1959B8"/>
</linearGradient>
</defs>
</svg>
