<svg width="40" height="40" viewBox="0 0 40 40" fill="none" xmlns="http://www.w3.org/2000/svg">
<rect y="2.5" width="2.5" height="2.5" fill="#70767A"/>
<rect y="5" width="2.5" height="2.5" fill="#70767A"/>
<rect y="7.5" width="2.5" height="2.5" fill="#70767A"/>
<rect y="10" width="2.5" height="2.5" fill="#70767A"/>
<rect y="12.5" width="2.5" height="2.5" fill="#70767A"/>
<rect y="15" width="2.5" height="2.5" fill="#70767A"/>
<rect y="17.5" width="2.5" height="2.5" fill="#70767A"/>
<rect y="20" width="2.5" height="2.5" fill="#70767A"/>
<rect y="22.5" width="2.5" height="2.5" fill="#70767A"/>
<rect y="25" width="2.5" height="2.5" fill="#70767A"/>
<rect y="27.5" width="2.5" height="2.5" fill="#70767A"/>
<rect y="30" width="2.5" height="2.5" fill="#70767A"/>
<rect y="32.5" width="2.5" height="2.5" fill="#70767A"/>
<rect y="35" width="2.5" height="2.5" fill="#70767A"/>
<rect x="2.5" width="2.5" height="2.5" fill="#8C9499"/>
<rect x="2.5" y="2.5" width="2.5" height="2.5" fill="black"/>
<rect x="2.5" y="5" width="2.5" height="2.5" fill="black"/>
<rect x="2.5" y="7.5" width="2.5" height="2.5" fill="black"/>
<rect x="2.5" y="10" width="2.5" height="2.5" fill="black"/>
<rect x="2.5" y="12.5" width="2.5" height="2.5" fill="black"/>
<rect x="2.5" y="15" width="2.5" height="2.5" fill="black"/>
<rect x="2.5" y="17.5" width="2.5" height="2.5" fill="black"/>
<rect x="2.5" y="20" width="2.5" height="2.5" fill="black"/>
<rect x="2.5" y="22.5" width="2.5" height="2.5" fill="black"/>
<rect x="2.5" y="25" width="2.5" height="2.5" fill="#B5B9BC"/>
<rect x="2.5" y="27.5" width="2.5" height="2.5" fill="#B5B9BC"/>
<rect x="2.5" y="30" width="2.5" height="2.5" fill="#B5B9BC"/>
<rect x="5" y="30" width="2.5" height="2.5" fill="#B5B9BC"/>
<rect x="2.5" y="32.5" width="2.5" height="2.5" fill="#B5B9BC"/>
<rect x="2.5" y="35" width="2.5" height="2.5" fill="#A2A7AA"/>
<rect x="2.5" y="37.5" width="2.5" height="2.5" fill="#70767A"/>
<rect x="5" width="2.5" height="2.5" fill="#8C9499"/>
<rect x="5" y="2.5" width="2.5" height="2.5" fill="black"/>
<rect x="5" y="5" width="2.5" height="2.5" fill="#5094FA"/>
<rect x="5" y="7.5" width="2.5" height="2.5" fill="#5094FA"/>
<rect x="5" y="10" width="2.5" height="2.5" fill="#71BBFF"/>
<rect x="5" y="12.5" width="2.5" height="2.5" fill="#71BBFF"/>
<rect x="5" y="15" width="2.5" height="2.5" fill="#9ACFFF"/>
<rect x="5" y="17.5" width="2.5" height="2.5" fill="#F0F0F5"/>
<rect x="5" y="20" width="2.5" height="2.5" fill="#E8E8EE"/>
<rect x="5" y="22.5" width="2.5" height="2.5" fill="black"/>
<rect x="5" y="25" width="2.5" height="2.5" fill="#B5B9BC"/>
<rect x="5" y="27.5" width="2.5" height="2.5" fill="#B5B9BC"/>
<rect x="7.5" y="27.5" width="2.5" height="2.5" fill="#B5B9BC"/>
<rect x="6.25" y="30" width="2.5" height="2.5" fill="#222222"/>
<rect x="5" y="32.5" width="2.5" height="2.5" fill="#B5B9BC"/>
<rect x="7.5" y="32.5" width="2.5" height="2.5" fill="#B5B9BC"/>
<rect x="5" y="35" width="2.5" height="2.5" fill="#A2A7AA"/>
<rect x="5" y="37.5" width="2.5" height="2.5" fill="#70767A"/>
<rect x="7.5" width="2.5" height="2.5" fill="#8C9499"/>
<rect x="7.5" y="2.5" width="2.5" height="2.5" fill="black"/>
<rect x="7.5" y="5" width="2.5" height="2.5" fill="#5094FA"/>
<rect x="7.5" y="7.5" width="2.5" height="2.5" fill="#5094FA"/>
<rect x="7.5" y="10" width="2.5" height="2.5" fill="#71BBFF"/>
<rect x="7.5" y="12.5" width="2.5" height="2.5" fill="#71BBFF"/>
<rect x="7.5" y="15" width="2.5" height="2.5" fill="white"/>
<rect x="7.5" y="17.5" width="2.5" height="2.5" fill="white"/>
<rect x="7.5" y="20" width="2.5" height="2.5" fill="#E8E8EE"/>
<rect x="7.5" y="22.5" width="2.5" height="2.5" fill="black"/>
<rect x="7.5" y="25" width="2.5" height="2.5" fill="#B5B9BC"/>
<rect x="8.75" y="27.5" width="2.5" height="2.5" fill="#222222"/>
<rect x="8.75" y="30" width="2.5" height="2.5" fill="#2B2B2B"/>
<rect x="8.75" y="32.5" width="2.5" height="2.5" fill="black"/>
<rect x="7.5" y="35" width="2.5" height="2.5" fill="#A2A7AA"/>
<rect x="7.5" y="37.5" width="2.5" height="2.5" fill="#596065"/>
<rect x="10" width="2.5" height="2.5" fill="#8C9499"/>
<rect x="10" y="2.5" width="2.5" height="2.5" fill="black"/>
<rect x="10" y="5" width="2.5" height="2.5" fill="#5094FA"/>
<rect x="10" y="7.5" width="2.5" height="2.5" fill="#5094FA"/>
<rect x="10" y="10" width="2.5" height="2.5" fill="#71BBFF"/>
<rect x="10" y="12.5" width="2.5" height="2.5" fill="#71BBFF"/>
<rect x="10" y="15" width="2.5" height="2.5" fill="white"/>
<rect x="10" y="17.5" width="2.5" height="2.5" fill="white"/>
<rect x="10" y="20" width="2.5" height="2.5" fill="#E8E8EE"/>
<rect x="10" y="22.5" width="2.5" height="2.5" fill="black"/>
<rect x="10" y="25" width="2.5" height="2.5" fill="#B5B9BC"/>
<rect x="11.25" y="27.5" width="2.5" height="2.5" fill="#A2A7AA"/>
<rect x="11.25" y="30" width="2.5" height="2.5" fill="black"/>
<rect x="11.25" y="32.5" width="2.5" height="2.5" fill="#8D9599"/>
<rect x="10" y="35" width="2.5" height="2.5" fill="#A2A7AA"/>
<rect x="10" y="37.5" width="2.5" height="2.5" fill="#596065"/>
<rect x="12.5" width="2.5" height="2.5" fill="#8C9499"/>
<rect x="12.5" y="2.5" width="2.5" height="2.5" fill="black"/>
<rect x="12.5" y="5" width="2.5" height="2.5" fill="#5094FA"/>
<rect x="12.5" y="7.5" width="2.5" height="2.5" fill="#5094FA"/>
<rect x="12.5" y="10" width="2.5" height="2.5" fill="#71BBFF"/>
<rect x="12.5" y="12.5" width="2.5" height="2.5" fill="#71BBFF"/>
<rect x="12.5" y="15" width="2.5" height="2.5" fill="#DAEDFF"/>
<rect x="12.5" y="17.5" width="2.5" height="2.5" fill="white"/>
<rect x="12.5" y="20" width="2.5" height="2.5" fill="#E8E8EE"/>
<rect x="12.5" y="22.5" width="2.5" height="2.5" fill="black"/>
<rect x="12.5" y="25" width="2.5" height="2.5" fill="#B5B9BC"/>
<rect x="13.75" y="27.5" width="2.5" height="2.5" fill="#B5B9BC"/>
<rect x="13.75" y="30" width="2.5" height="2.5" fill="#A2A7AA"/>
<rect x="13.75" y="32.5" width="2.5" height="2.5" fill="#B5B9BC"/>
<rect x="12.5" y="35" width="2.5" height="2.5" fill="#A2A7AA"/>
<rect x="12.5" y="37.5" width="2.5" height="2.5" fill="#596065"/>
<rect x="15" width="2.5" height="2.5" fill="#8C9499"/>
<rect x="15" y="2.5" width="2.5" height="2.5" fill="black"/>
<rect x="15" y="5" width="2.5" height="2.5" fill="#5094FA"/>
<rect x="15" y="7.5" width="2.5" height="2.5" fill="#5094FA"/>
<rect x="15" y="10" width="2.5" height="2.5" fill="white"/>
<rect x="15" y="12.5" width="2.5" height="2.5" fill="white"/>
<rect x="15" y="15" width="2.5" height="2.5" fill="white"/>
<rect x="15" y="17.5" width="2.5" height="2.5" fill="white"/>
<rect x="15" y="20" width="2.5" height="2.5" fill="#E8E8EE"/>
<rect x="15" y="22.5" width="2.5" height="2.5" fill="black"/>
<rect x="15" y="25" width="2.5" height="2.5" fill="#B5B9BC"/>
<rect x="15" y="27.5" width="2.5" height="2.5" fill="#B5B9BC"/>
<rect x="16.25" y="30" width="1.25" height="2.5" fill="#B5B9BC"/>
<rect x="15" y="32.5" width="2.5" height="2.5" fill="#B5B9BC"/>
<rect x="15" y="35" width="2.5" height="2.5" fill="#A2A7AA"/>
<rect x="15" y="37.5" width="2.5" height="2.5" fill="#596065"/>
<rect x="17.5" width="2.5" height="2.5" fill="#8C9499"/>
<rect x="17.5" y="2.5" width="2.5" height="2.5" fill="black"/>
<rect x="17.5" y="5" width="2.5" height="2.5" fill="#5094FA"/>
<rect x="17.5" y="7.5" width="2.5" height="2.5" fill="#5094FA"/>
<rect x="17.5" y="10" width="2.5" height="2.5" fill="white"/>
<rect x="17.5" y="12.5" width="2.5" height="2.5" fill="white"/>
<rect x="17.5" y="15" width="2.5" height="2.5" fill="white"/>
<rect x="17.5" y="17.5" width="2.5" height="2.5" fill="#F0F0F5"/>
<rect x="17.5" y="20" width="2.5" height="2.5" fill="#E8E8EE"/>
<rect x="17.5" y="22.5" width="2.5" height="2.5" fill="black"/>
<rect x="17.5" y="25" width="2.5" height="2.5" fill="#B5B9BC"/>
<rect x="17.5" y="27.5" width="2.5" height="2.5" fill="#B5B9BC"/>
<rect x="17.5" y="30" width="2.5" height="2.5" fill="#B5B9BC"/>
<rect x="20" y="30" width="2.5" height="2.5" fill="#B5B9BC"/>
<rect x="17.5" y="32.5" width="2.5" height="2.5" fill="#B5B9BC"/>
<rect x="20" y="32.5" width="2.5" height="2.5" fill="#B5B9BC"/>
<rect x="17.5" y="35" width="2.5" height="2.5" fill="#A2A7AA"/>
<rect x="17.5" y="37.5" width="2.5" height="2.5" fill="#596065"/>
<rect x="20" width="2.5" height="2.5" fill="#8C9499"/>
<rect x="20" y="2.5" width="2.5" height="2.5" fill="black"/>
<rect x="20" y="5" width="2.5" height="2.5" fill="#5094FA"/>
<rect x="20" y="7.5" width="2.5" height="2.5" fill="white"/>
<rect x="20" y="10" width="2.5" height="2.5" fill="white"/>
<rect x="20" y="12.5" width="2.5" height="2.5" fill="white"/>
<rect x="20" y="15" width="2.5" height="2.5" fill="#F7F7FA"/>
<rect x="20" y="17.5" width="2.5" height="2.5" fill="#F0F0F5"/>
<rect x="20" y="20" width="2.5" height="2.5" fill="#E1E1E8"/>
<rect x="20" y="22.5" width="2.5" height="2.5" fill="black"/>
<rect x="20" y="25" width="2.5" height="2.5" fill="#B5B9BC"/>
<rect x="20" y="27.5" width="2.5" height="2.5" fill="#B5B9BC"/>
<rect x="21.25" y="30" width="2.5" height="2.5" fill="#E93C78"/>
<rect x="21.25" y="32.5" width="2.5" height="2.5" fill="#DD2766"/>
<rect x="20" y="35" width="2.5" height="2.5" fill="#A2A7AA"/>
<rect x="20" y="37.5" width="2.5" height="2.5" fill="#596065"/>
<rect x="22.5" width="2.5" height="2.5" fill="#8C9499"/>
<rect x="22.5" y="2.5" width="2.5" height="2.5" fill="black"/>
<rect x="22.5" y="5" width="2.5" height="2.5" fill="#5094FA"/>
<rect x="22.5" y="7.5" width="2.5" height="2.5" fill="white"/>
<rect x="22.5" y="10" width="2.5" height="2.5" fill="white"/>
<rect x="22.5" y="12.5" width="2.5" height="2.5" fill="white"/>
<rect x="22.5" y="15" width="2.5" height="2.5" fill="#F7F7FA"/>
<rect x="22.5" y="17.5" width="2.5" height="2.5" fill="#F0F0F5"/>
<rect x="22.5" y="20" width="2.5" height="2.5" fill="#E1E1E8"/>
<rect x="22.5" y="22.5" width="2.5" height="2.5" fill="black"/>
<rect x="22.5" y="25" width="2.5" height="2.5" fill="#B5B9BC"/>
<rect x="22.5" y="27.5" width="2.5" height="2.5" fill="#B5B9BC"/>
<rect x="23.75" y="30" width="2.5" height="2.5" fill="#DD2766"/>
<rect x="23.75" y="32.5" width="2.5" height="2.5" fill="#D71357"/>
<rect x="22.5" y="35" width="2.5" height="2.5" fill="#A2A7AA"/>
<rect x="22.5" y="37.5" width="2.5" height="2.5" fill="#596065"/>
<rect x="25" width="2.5" height="2.5" fill="#8C9499"/>
<rect x="25" y="2.5" width="2.5" height="2.5" fill="black"/>
<rect x="25" y="5" width="2.5" height="2.5" fill="#5094FA"/>
<rect x="25" y="7.5" width="2.5" height="2.5" fill="white"/>
<rect x="25" y="10" width="2.5" height="2.5" fill="white"/>
<rect x="25" y="12.5" width="2.5" height="2.5" fill="#F7F7FA"/>
<rect x="25" y="15" width="2.5" height="2.5" fill="#F7F7FA"/>
<rect x="25" y="17.5" width="2.5" height="2.5" fill="#F0F0F5"/>
<rect x="25" y="20" width="2.5" height="2.5" fill="#E1E1E8"/>
<rect x="25" y="22.5" width="2.5" height="2.5" fill="black"/>
<rect x="25" y="25" width="2.5" height="2.5" fill="#B5B9BC"/>
<rect x="25" y="27.5" width="2.5" height="2.5" fill="#B5B9BC"/>
<rect x="27.5" y="27.5" width="2.5" height="2.5" fill="#B5B9BC"/>
<rect x="26.25" y="30" width="2.5" height="2.5" fill="#A2A7AA"/>
<rect x="26.25" y="32.5" width="2.5" height="2.5" fill="#A2A7AA"/>
<rect x="25" y="35" width="2.5" height="2.5" fill="#A2A7AA"/>
<rect x="25" y="37.5" width="2.5" height="2.5" fill="#596065"/>
<rect x="27.5" width="2.5" height="2.5" fill="#8C9499"/>
<rect x="27.5" y="2.5" width="2.5" height="2.5" fill="black"/>
<rect x="27.5" y="5" width="2.5" height="2.5" fill="#5094FA"/>
<rect x="27.5" y="7.5" width="2.5" height="2.5" fill="#5094FA"/>
<rect x="27.5" y="10" width="2.5" height="2.5" fill="white"/>
<rect x="27.5" y="12.5" width="2.5" height="2.5" fill="white"/>
<rect x="27.5" y="15" width="2.5" height="2.5" fill="#F7F7FA"/>
<rect x="27.5" y="17.5" width="2.5" height="2.5" fill="#F0F0F5"/>
<rect x="27.5" y="20" width="2.5" height="2.5" fill="#E1E1E8"/>
<rect x="27.5" y="22.5" width="2.5" height="2.5" fill="black"/>
<rect x="27.5" y="25" width="2.5" height="2.5" fill="#B5B9BC"/>
<rect x="28.75" y="27.5" width="2.5" height="2.5" fill="#4A91FA"/>
<rect x="28.75" y="30" width="2.5" height="2.5" fill="#317EF2"/>
<rect x="28.75" y="32.5" width="2.5" height="2.5" fill="#B5B9BC"/>
<rect x="27.5" y="35" width="2.5" height="2.5" fill="#A2A7AA"/>
<rect x="27.5" y="37.5" width="2.5" height="2.5" fill="#596065"/>
<rect x="30" width="2.5" height="2.5" fill="#8C9499"/>
<rect x="30" y="2.5" width="2.5" height="2.5" fill="black"/>
<rect x="30" y="5" width="2.5" height="2.5" fill="#5094FA"/>
<rect x="30" y="7.5" width="2.5" height="2.5" fill="#5094FA"/>
<rect x="30" y="10" width="2.5" height="2.5" fill="#71BBFF"/>
<rect x="30" y="12.5" width="2.5" height="2.5" fill="#B3DAFF"/>
<rect x="30" y="15" width="2.5" height="2.5" fill="white"/>
<rect x="30" y="17.5" width="2.5" height="2.5" fill="#F0F0F5"/>
<rect x="30" y="20" width="2.5" height="2.5" fill="#E1E1E8"/>
<rect x="30" y="22.5" width="2.5" height="2.5" fill="black"/>
<rect x="30" y="25" width="2.5" height="2.5" fill="#B5B9BC"/>
<rect x="31.25" y="27.5" width="2.5" height="2.5" fill="#317EF2"/>
<rect x="31.25" y="30" width="2.5" height="2.5" fill="#176CEB"/>
<rect x="30" y="32.5" width="2.5" height="2.5" fill="#B5B9BC"/>
<rect x="30" y="35" width="2.5" height="2.5" fill="#A2A7AA"/>
<rect x="30" y="37.5" width="2.5" height="2.5" fill="#596065"/>
<rect x="32.5" width="2.5" height="2.5" fill="#70767A"/>
<rect x="32.5" y="2.5" width="2.5" height="2.5" fill="black"/>
<rect x="32.5" y="5" width="2.5" height="2.5" fill="#5094FA"/>
<rect x="32.5" y="7.5" width="2.5" height="2.5" fill="#5094FA"/>
<rect x="32.5" y="10" width="2.5" height="2.5" fill="#71BBFF"/>
<rect x="32.5" y="12.5" width="2.5" height="2.5" fill="white"/>
<rect x="32.5" y="15" width="2.5" height="2.5" fill="white"/>
<rect x="32.5" y="17.5" width="2.5" height="2.5" fill="#E8E8EE"/>
<rect x="7.5" y="17.5" width="2.5" height="2.5" fill="#F0F0F5"/>
<rect x="32.5" y="20" width="2.5" height="2.5" fill="#E8E8EE"/>
<rect x="32.5" y="22.5" width="2.5" height="2.5" fill="black"/>
<rect x="32.5" y="25" width="2.5" height="2.5" fill="#B5B9BC"/>
<rect x="33.75" y="27.5" width="2.5" height="2.5" fill="#A2A7AA"/>
<rect x="33.75" y="30" width="2.5" height="2.5" fill="#A2A7AA"/>
<rect x="32.5" y="32.5" width="2.5" height="2.5" fill="#B5B9BC"/>
<rect x="32.5" y="35" width="2.5" height="2.5" fill="#A2A7AA"/>
<rect x="32.5" y="37.5" width="2.5" height="2.5" fill="#596065"/>
<rect x="35" width="2.5" height="2.5" fill="#70767A"/>
<rect x="35" y="25" width="2.5" height="2.5" fill="#A2A7AA"/>
<rect x="36.25" y="27.5" width="1.25" height="2.5" fill="#A2A7AA"/>
<rect x="36.25" y="30" width="1.25" height="2.5" fill="#A2A7AA"/>
<rect x="35" y="32.5" width="2.5" height="2.5" fill="#A2A7AA"/>
<rect x="35" y="35" width="2.5" height="2.5" fill="#8D9599"/>
<rect x="35" y="37.5" width="2.5" height="2.5" fill="#596065"/>
<rect x="35" y="2.5" width="2.5" height="2.5" fill="black"/>
<rect x="35" y="5" width="2.5" height="2.5" fill="black"/>
<rect x="35" y="7.5" width="2.5" height="2.5" fill="black"/>
<rect x="35" y="10" width="2.5" height="2.5" fill="black"/>
<rect x="35" y="12.5" width="2.5" height="2.5" fill="black"/>
<rect x="35" y="15" width="2.5" height="2.5" fill="black"/>
<rect x="35" y="17.5" width="2.5" height="2.5" fill="black"/>
<rect x="35" y="20" width="2.5" height="2.5" fill="black"/>
<rect x="35" y="22.5" width="2.5" height="2.5" fill="black"/>
<rect x="37.5" y="2.5" width="2.5" height="2.5" fill="#70767A"/>
<rect x="37.5" y="5" width="2.5" height="2.5" fill="#70767A"/>
<rect x="37.5" y="7.5" width="2.5" height="2.5" fill="#70767A"/>
<rect x="37.5" y="10" width="2.5" height="2.5" fill="#70767A"/>
<rect x="37.5" y="12.5" width="2.5" height="2.5" fill="#70767A"/>
<rect x="37.5" y="15" width="2.5" height="2.5" fill="#70767A"/>
<rect x="37.5" y="17.5" width="2.5" height="2.5" fill="#70767A"/>
<rect x="37.5" y="20" width="2.5" height="2.5" fill="#70767A"/>
<rect x="37.5" y="22.5" width="2.5" height="2.5" fill="#70767A"/>
<rect x="37.5" y="25" width="2.5" height="2.5" fill="#596065"/>
<rect x="37.5" y="27.5" width="2.5" height="2.5" fill="#596065"/>
<rect x="37.5" y="30" width="2.5" height="2.5" fill="#596065"/>
<rect x="37.5" y="32.5" width="2.5" height="2.5" fill="#596065"/>
<rect x="37.5" y="35" width="2.5" height="2.5" fill="#596065"/>
</svg>
