<svg width="40" height="40" viewBox="0 0 40 40" fill="none" xmlns="http://www.w3.org/2000/svg">
<path d="M0 8C0 3.58172 3.58172 0 8 0H32C36.4183 0 40 3.58172 40 8V32C40 36.4183 36.4183 40 32 40H8C3.58172 40 0 36.4183 0 32V8Z" fill="#3277F6"/>
<path d="M34.711 16.1079L19.9738 8.44141L5.25391 16.2742L9.14201 18.3786L9.14574 27.0172L20.3503 32.7146L30.8813 26.9849V18.2259L34.711 16.1079ZM19.9911 12.2306L27.6207 16.1985L19.9738 20.4284L12.3442 16.3003L19.9911 12.2306ZM27.5263 24.9948L20.2981 28.9279L12.5008 24.9625L12.4983 20.195L19.9911 24.2498L27.5263 20.082V24.9935V24.9948Z" fill="white"/>
</svg>
