<svg width="40" height="40" viewBox="0 0 40 40" fill="none" xmlns="http://www.w3.org/2000/svg">
<g clip-path="url(#clip0_251_287)">
<path d="M30.1239 0H9.87607C4.42167 0 0 4.42167 0 9.87607V30.1239C0 35.5783 4.42167 40 9.87607 40H30.1239C35.5783 40 40 35.5783 40 30.1239V9.87607C40 4.42167 35.5783 0 30.1239 0Z" fill="#00CD72"/>
<path d="M19.5 7.14844C12.6893 7.14844 7.14819 12.6895 7.14819 19.5003C7.14819 26.311 12.6893 31.8521 19.5 31.8521H31.8519V19.5003C31.8519 12.6895 26.3108 7.14844 19.5 7.14844ZM9.92337 19.5003C9.92337 14.2194 14.2191 9.92361 19.5 9.92361C24.781 9.92361 29.0767 14.2194 29.0767 19.5003V27.5772L20.3303 18.7163L22.3319 13.4215C22.5354 12.8838 22.2637 12.2837 21.726 12.0802C21.1883 11.8766 20.5881 12.1484 20.3846 12.6861L18.7207 17.087L15.9432 14.2737C15.5396 13.8644 14.8805 13.8609 14.4712 14.2645C14.0619 14.668 14.0584 15.3271 14.4619 15.7365L21.3108 22.6744H16.1918C15.6171 22.6744 15.1511 23.1404 15.1511 23.7151C15.1511 24.2898 15.6171 24.7558 16.1918 24.7558H23.3656L27.6313 29.0781H19.4989C14.218 29.0781 9.92221 24.7824 9.92221 19.5014L9.92337 19.5003Z" fill="white"/>
</g>
<defs>
<clipPath id="clip0_251_287">
<rect width="40" height="40" fill="white"/>
</clipPath>
</defs>
</svg>
