<svg width="731" height="717" viewBox="0 0 731 717" fill="none" xmlns="http://www.w3.org/2000/svg">
<g clip-path="url(#clip0_248_4084)">
<circle cx="386" cy="187" r="10" fill="#A9ABB8"/>
<circle cx="386" cy="223" r="10" fill="#A9ABB8"/>
<circle cx="386" cy="259" r="10" fill="#A9ABB8"/>
<circle cx="386" cy="295" r="10" fill="#A9ABB8"/>
<circle cx="386" cy="331" r="10" fill="#A9ABB8"/>
<circle cx="386" cy="367" r="10" fill="#A9ABB8"/>
<circle cx="386" cy="403" r="10" fill="#A9ABB8"/>
<circle cx="386" cy="439" r="10" fill="#A9ABB8"/>
<circle cx="386" cy="475" r="10" fill="#A9ABB8"/>
<circle cx="386" cy="511" r="10" fill="#A9ABB8"/>
<circle cx="386" cy="547" r="10" fill="#A9ABB8"/>
<circle cx="386" cy="583" r="10" fill="#A9ABB8"/>
<circle cx="386" cy="619" r="10" fill="#A9ABB8"/>
<circle cx="386" cy="655" r="10" fill="#A9ABB8"/>
<circle cx="386" cy="691" r="10" fill="#A9ABB8"/>
<mask id="mask0_248_4084" style="mask-type:luminance" maskUnits="userSpaceOnUse" x="15" y="547" width="159" height="153">
<path d="M173.12 547H15V699.343H173.12V547Z" fill="white"/>
</mask>
<g mask="url(#mask0_248_4084)">
<mask id="mask1_248_4084" style="mask-type:luminance" maskUnits="userSpaceOnUse" x="15" y="547" width="159" height="153">
<path d="M173.104 547H15V699.343H173.104V547Z" fill="white"/>
</mask>
<g mask="url(#mask1_248_4084)">
<g opacity="0.8">
<mask id="mask2_248_4084" style="mask-type:luminance" maskUnits="userSpaceOnUse" x="66" y="547" width="59" height="35">
<path d="M124.295 547H66.8093V581.484H124.295V547Z" fill="white"/>
</mask>
<g mask="url(#mask2_248_4084)">
<path d="M122.003 581.468H69.1167C67.84 581.468 66.8093 580.436 66.8093 579.159V549.294C66.8093 548.016 67.84 546.984 69.1167 546.984H122.003C123.28 546.984 124.31 548.016 124.31 549.294V579.159C124.31 580.436 123.28 581.468 122.003 581.468Z" fill="#525463"/>
</g>
</g>
<path d="M81.6538 647.479H39.7664C38.4896 647.479 37.459 646.448 37.459 645.17V623.464C37.459 622.186 38.4896 621.155 39.7664 621.155H81.6538C82.9306 621.155 83.9612 622.186 83.9612 623.464V645.17C83.9612 646.448 82.9306 647.479 81.6538 647.479Z" fill="#525463"/>
<path d="M152.199 647.479H110.312C109.035 647.479 108.004 646.448 108.004 645.17V623.464C108.004 622.186 109.035 621.155 110.312 621.155H152.199C153.476 621.155 154.507 622.186 154.507 623.464V645.17C154.507 646.448 153.476 647.479 152.199 647.479Z" fill="#525463"/>
<path d="M108.82 699.328H89.0223C87.7455 699.328 86.7148 698.296 86.7148 697.018V679.146C86.7148 677.868 87.7455 676.836 89.0223 676.836H108.82C110.097 676.836 111.127 677.868 111.127 679.146V697.018C111.127 698.296 110.097 699.328 108.82 699.328Z" fill="#525463"/>
<path d="M139.816 699.328H120.018C118.742 699.328 117.711 698.296 117.711 697.018V679.146C117.711 677.868 118.742 676.836 120.018 676.836H139.816C141.093 676.836 142.123 677.868 142.123 679.146V697.018C142.123 698.296 141.093 699.328 139.816 699.328Z" fill="#525463"/>
<path d="M170.812 699.328H151.015C149.738 699.328 148.707 698.296 148.707 697.018V679.146C148.707 677.868 149.738 676.836 151.015 676.836H170.812C172.089 676.836 173.12 677.868 173.12 679.146V697.018C173.12 698.296 172.089 699.328 170.812 699.328Z" fill="#525463"/>
<path d="M37.1051 699.328H17.3074C16.0306 699.328 15 698.296 15 697.018V679.146C15 677.868 16.0306 676.836 17.3074 676.836H37.1051C38.3819 676.836 39.4125 677.868 39.4125 679.146V697.018C39.4125 698.296 38.3819 699.328 37.1051 699.328Z" fill="#525463"/>
<path d="M70.7472 699.328H50.9495C49.6727 699.328 48.6421 698.296 48.6421 697.018V679.146C48.6421 677.868 49.6727 676.836 50.9495 676.836H70.7472C72.024 676.836 73.0546 677.868 73.0546 679.146V697.018C73.0546 698.296 72.024 699.328 70.7472 699.328Z" fill="#525463"/>
<path d="M128.602 621.155H131.233V602.636H96.8675V581.468H94.237V602.636H59.8718V621.155H62.5177V605.283H128.602V621.155Z" fill="#525463"/>
<path d="M59.8718 663.474H25.5066V676.698H28.1524V666.122H59.8718V676.698H62.5176V647.603H59.8718V663.474Z" fill="#525463"/>
<path d="M131.232 666.122V647.603H128.602V666.122H96.8672V676.698H99.513V668.77H128.602V676.698H131.232V668.77H160.321V676.698H162.952V666.122H131.232Z" fill="#525463"/>
</g>
</g>
<path d="M211.246 449.811L202.918 437.676C201.369 435.426 198.814 434.063 196.072 434.063H120.474C117.902 434.063 115.467 435.256 113.9 437.301L106.764 446.573C105.163 448.669 104.295 451.226 104.295 453.867V560.218H271.619V454.958C271.619 452.095 269.303 449.794 266.459 449.794H211.246V449.811Z" fill="url(#paint0_linear_248_4084)"/>
<path d="M224.786 548.543H133.4C128.529 548.543 124.578 544.146 124.578 538.726V419.934C124.578 414.514 128.529 410.117 133.4 410.117H211.689L233.607 438.017V538.743C233.607 544.163 229.656 548.56 224.786 548.56" fill="white"/>
<path d="M211.706 410.117V430.961C211.706 434.949 214.635 438.188 218.229 438.154L233.624 438.017L211.706 410.117Z" fill="#E1E1E8"/>
<path d="M174.716 437.335H143.806C141.388 437.335 139.429 439.297 139.429 441.716C139.429 444.135 141.388 446.096 143.806 446.096H174.716C177.133 446.096 179.093 444.135 179.093 441.716C179.093 439.297 177.133 437.335 174.716 437.335Z" fill="#E8E8EE"/>
<path d="M192.24 455.333H143.806C141.388 455.333 139.429 457.294 139.429 459.713C139.429 462.132 141.388 464.093 143.806 464.093H192.24C194.658 464.093 196.617 462.132 196.617 459.713C196.617 457.294 194.658 455.333 192.24 455.333Z" fill="#E8E8EE"/>
<path d="M228.566 474.627H166.524L154.381 463.753C152.065 461.674 149.068 460.532 145.951 460.532H76.1774C74.3721 460.532 72.7372 461.657 72.09 463.344L69.9272 468.985C68.5307 472.615 68.6158 476.638 70.1315 480.2L104.261 560.218H271.585L237.661 480.643C236.111 476.996 232.517 474.61 228.549 474.61L228.566 474.627Z" fill="url(#paint1_linear_248_4084)"/>
<path d="M564.5 548C600.675 548 630 518.451 630 482C630 445.549 600.675 416 564.5 416C528.325 416 499 445.549 499 482C499 518.451 528.325 548 564.5 548Z" fill="url(#paint2_linear_248_4084)"/>
<g filter="url(#filter0_d_248_4084)">
<path d="M170.867 507.997H600.223C613.115 507.997 623.589 518.479 623.589 531.381V717.017H147.501V531.381C147.501 518.479 157.975 507.997 170.867 507.997Z" fill="#252730"/>
</g>
<path d="M179.655 529.097H591.452C597.481 529.097 602.386 534.006 602.386 540.039V717.017H168.721V540.039C168.721 534.006 173.626 529.097 179.655 529.097Z" fill="url(#paint3_linear_248_4084)"/>
<path d="M487.65 122.455V122.284C487.65 119.728 487.429 117.171 487.174 114.615L486.492 109.382V109.127C483.648 91.6232 475.848 75.3127 464.029 62.1212L463.927 62.0019L463.808 61.8655L463.161 61.1327C454.645 51.7247 444.257 44.1916 432.676 39.0274C421.061 33.8803 408.527 31.1875 395.839 31.1363L395.771 31C354.319 31 318.469 58.7636 307.178 99.0201C288.973 100.06 271.806 107.9 259.101 120.972C255.848 124.295 252.902 127.926 250.313 131.794C242.292 143.776 238 157.888 238 172.307C237.966 183.317 240.453 194.207 245.255 204.126C246.788 207.314 248.559 210.398 250.552 213.33C257.109 222.891 265.845 230.765 276.029 236.287C286.793 242.423 298.97 245.678 311.351 245.729H474.673L475.865 245.644H476.274L477.568 245.542C510.233 242.321 534.859 215.46 534.859 183.095C534.859 154.615 515.206 129.715 487.616 122.455H487.65Z" fill="url(#paint4_linear_248_4084)"/>
<path d="M684.541 592.635C710.199 592.635 731 571.818 731 546.14C731 520.462 710.199 499.646 684.541 499.646C658.882 499.646 638.082 520.462 638.082 546.14C638.082 571.818 658.882 592.635 684.541 592.635Z" fill="url(#paint5_linear_248_4084)"/>
<path d="M670.576 532.471H677.201V550.929C677.201 554.815 676.707 556.911 674.919 558.871C673.267 560.627 670.167 561.155 667.63 560.9C665.841 560.678 662.912 559.332 660.817 556.673L664.786 551.952C666.199 553.554 667.408 554.201 668.566 554.116C669.656 554.048 670.593 553.111 670.593 550.929V532.471H670.576Z" fill="#3E404C"/>
<path d="M695.781 560.388C693.124 561.138 689.531 561.172 686.21 560.235C684.337 559.604 681.305 557.832 679.67 556.008L684.081 551.219C687.828 553.844 690.74 554.969 692.869 554.44C694.81 553.946 695.219 551.713 693.55 550.622C691.643 549.31 689.735 548.901 686.363 547.112C681.612 544.453 680.419 540.448 682.054 537.226C683.74 533.664 687.368 531.807 691.626 531.807C695.883 531.807 699.374 533.375 701.793 535.999L697.45 540.823C695.611 539.255 692.886 538.13 691.098 538.13C690.059 538.13 689.037 538.726 689.037 539.97C689.037 541.215 690.502 542.101 694.538 544.095C699.63 546.413 701.537 548.731 701.912 551.543C702.593 555.548 700.447 559.11 695.781 560.405V560.388Z" fill="#3E404C"/>
<path d="M328.586 553.929H206.256C202.043 553.929 198.627 557.348 198.627 561.565V618.097C198.627 622.314 202.043 625.733 206.256 625.733H328.586C332.8 625.733 336.216 622.314 336.216 618.097V561.565C336.216 557.348 332.8 553.929 328.586 553.929Z" fill="url(#paint6_linear_248_4084)"/>
<path d="M206.239 645.196H328.586C332.793 645.196 336.216 648.622 336.216 652.832V717H198.627V652.832C198.627 648.622 202.05 645.196 206.256 645.196H206.239Z" fill="url(#paint7_linear_248_4084)"/>
<path d="M310.721 589.822H224.121C219.936 589.822 216.543 593.218 216.543 597.407V678.362C216.543 682.551 219.936 685.947 224.121 685.947H310.721C314.907 685.947 318.3 682.551 318.3 678.362V597.407C318.3 593.218 314.907 589.822 310.721 589.822Z" fill="#858899"/>
<path d="M247.623 638.72L234.85 657.008C232.858 659.854 234.902 663.757 238.376 663.757H263.921C267.396 663.757 269.422 659.854 267.447 657.008L254.674 638.72C252.971 636.266 249.343 636.266 247.64 638.72H247.623Z" fill="white"/>
<path d="M275.894 628.324L255.866 657.025C253.873 659.871 255.917 663.774 259.391 663.774H299.464C302.938 663.774 304.965 659.871 302.989 657.025L282.962 628.324C281.258 625.869 277.631 625.869 275.928 628.324H275.894Z" fill="white"/>
<path d="M246.789 626.483C250.786 626.483 254.027 623.24 254.027 619.24C254.027 615.239 250.786 611.996 246.789 611.996C242.791 611.996 239.551 615.239 239.551 619.24C239.551 623.24 242.791 626.483 246.789 626.483Z" fill="white"/>
<path opacity="0.53" d="M448.481 567.291L366.139 566.763C364.878 566.763 363.856 565.757 363.874 564.513L363.908 560.627C363.908 559.4 364.946 558.412 366.207 558.412L448.549 558.94C449.809 558.94 450.831 559.946 450.814 561.19L450.78 565.076C450.78 566.303 449.741 567.291 448.481 567.291Z" fill="url(#paint8_linear_248_4084)"/>
<path opacity="0.53" d="M519.532 582.426L396.776 581.625C395.516 581.625 394.494 580.619 394.511 579.375L394.546 575.489C394.546 574.262 395.584 573.273 396.845 573.273L519.6 574.074C520.861 574.074 521.883 575.08 521.865 576.324L521.831 580.21C521.831 581.437 520.793 582.426 519.532 582.426Z" fill="url(#paint9_linear_248_4084)"/>
<path opacity="0.53" d="M573.587 597.441L412.24 596.384C410.98 596.384 409.958 595.379 409.975 594.135L410.009 590.249C410.009 589.022 411.048 588.033 412.308 588.033L573.655 589.09C574.915 589.09 575.937 590.095 575.92 591.34L575.886 595.226C575.886 596.453 574.847 597.441 573.587 597.441Z" fill="url(#paint10_linear_248_4084)"/>
<path opacity="0.53" d="M574.353 612.133L413.006 611.076C411.746 611.076 410.724 610.07 410.741 608.826L410.775 604.94C410.775 603.713 411.814 602.725 413.075 602.725L574.422 603.781C575.682 603.781 576.704 604.787 576.687 606.031L576.653 609.917C576.653 611.144 575.614 612.133 574.353 612.133Z" fill="url(#paint11_linear_248_4084)"/>
<path opacity="0.53" d="M573.911 627.369L412.564 626.312C411.303 626.312 410.282 625.307 410.299 624.062L410.333 620.177C410.333 618.949 411.371 617.961 412.632 617.961L573.979 619.018C575.239 619.018 576.261 620.023 576.244 621.267L576.21 625.153C576.21 626.38 575.171 627.369 573.911 627.369Z" fill="url(#paint12_linear_248_4084)"/>
<path opacity="0.53" d="M462.667 641.328L365.594 640.697C364.333 640.697 363.312 639.691 363.329 638.447L363.363 634.561C363.363 633.334 364.402 632.346 365.662 632.346L462.736 632.976C463.996 632.976 465.018 633.982 465.001 635.226L464.967 639.112C464.967 640.339 463.928 641.328 462.667 641.328Z" fill="url(#paint13_linear_248_4084)"/>
<path opacity="0.53" d="M510.54 656.309L388.38 655.507C387.12 655.507 386.098 654.502 386.115 653.258L386.149 649.372C386.149 648.145 387.188 647.156 388.448 647.156L510.608 647.957C511.868 647.957 512.89 648.963 512.873 650.207L512.839 654.093C512.839 655.32 511.8 656.309 510.54 656.309Z" fill="url(#paint14_linear_248_4084)"/>
<path opacity="0.53" d="M574.677 671.409L407.71 670.319C406.45 670.319 405.428 669.313 405.445 668.069L405.479 664.183C405.479 662.956 406.518 661.967 407.778 661.967L574.745 663.058C576.005 663.058 577.027 664.064 577.01 665.308L576.976 669.194C576.976 670.421 575.937 671.409 574.677 671.409Z" fill="url(#paint15_linear_248_4084)"/>
<path opacity="0.53" d="M461.663 714.495L364.589 713.864C363.328 713.864 362.307 712.858 362.324 711.614L362.358 707.728C362.358 706.501 363.397 705.513 364.657 705.513L461.731 706.143C462.991 706.143 464.013 707.149 463.996 708.393L463.962 712.279C463.962 713.506 462.923 714.495 461.663 714.495Z" fill="url(#paint16_linear_248_4084)"/>
<path opacity="0.53" d="M573.246 686.322L406.279 685.231C405.019 685.231 403.997 684.226 404.014 682.981L404.048 679.096C404.048 677.868 405.087 676.88 406.348 676.88L573.315 677.971C574.575 677.971 575.597 678.976 575.58 680.22L575.546 684.106C575.546 685.333 574.507 686.322 573.246 686.322Z" fill="url(#paint17_linear_248_4084)"/>
<path opacity="0.53" d="M574.03 701.013L407.063 699.923C405.803 699.923 404.781 698.917 404.798 697.673L404.832 693.787C404.832 692.56 405.871 691.571 407.131 691.571L574.098 692.662C575.358 692.662 576.38 693.668 576.363 694.912L576.329 698.798C576.329 700.025 575.29 701.013 574.03 701.013Z" fill="url(#paint18_linear_248_4084)"/>
<path d="M610.288 685.862C646.537 685.862 675.923 656.454 675.923 620.177C675.923 583.9 646.537 554.492 610.288 554.492C574.038 554.492 544.652 583.9 544.652 620.177C544.652 656.454 574.038 685.862 610.288 685.862Z" fill="url(#paint19_linear_248_4084)"/>
<path d="M560.542 606.218H567.201V616.7H576.704V606.218H583.363V633.982H576.704V622.682H567.201V633.982H560.542V606.218Z" fill="#858899"/>
<path d="M585.815 606.218H606.95V612.354H599.627V633.982H592.968V612.354H585.832V606.218H585.815Z" fill="#858899"/>
<path d="M620.677 633.982L615.67 615.984H615.482L615.329 633.982H608.483L610.203 606.218H617.866L623.742 625.494H623.929L629.839 606.218H637.503L639.223 633.982H632.376L632.223 615.984H632.036L627.029 633.982H620.677Z" fill="#858899"/>
<path d="M653.835 633.982H642.05V606.218H648.708V627.966H654.686C657.445 627.966 658.876 627.778 660.63 627.557V633.471C658.978 633.88 655.946 633.999 653.818 633.999L653.835 633.982Z" fill="#858899"/>
<path d="M593.162 491.867H585.517L594.461 465H604.072L612.978 491.867H605.371L603.757 486.598H594.758L593.162 491.867ZM596.39 481.254H602.124L599.359 472.236H599.136L596.39 481.254Z" fill="url(#paint20_linear_248_4084)"/>
<path d="M569.07 465L574.71 484.148H574.933L580.573 465H588.552L579.646 491.867H570.034L561.091 465H569.07Z" fill="url(#paint21_linear_248_4084)"/>
<path d="M543.827 491.867H536.183L545.126 465H554.737L563.644 491.867H556.036L554.422 486.598H545.423L543.827 491.867ZM547.056 481.254H552.789L550.024 472.236H549.802L547.056 481.254Z" fill="url(#paint22_linear_248_4084)"/>
<path d="M527.008 465H533.985V483.443C533.948 488.713 529.81 492.238 523.928 492.238C518.807 492.238 514.614 489.659 514.651 483.592H521.702C521.776 485.633 522.722 486.728 524.374 486.709C526.062 486.728 526.971 485.596 527.008 483.443V465Z" fill="url(#paint23_linear_248_4084)"/>
</g>
<defs>
<filter id="filter0_d_248_4084" x="45.6012" y="410.097" width="679.888" height="412.82" filterUnits="userSpaceOnUse" color-interpolation-filters="sRGB">
<feFlood flood-opacity="0" result="BackgroundImageFix"/>
<feColorMatrix in="SourceAlpha" type="matrix" values="0 0 0 0 0 0 0 0 0 0 0 0 0 0 0 0 0 0 127 0" result="hardAlpha"/>
<feOffset dy="4"/>
<feGaussianBlur stdDeviation="50.95"/>
<feComposite in2="hardAlpha" operator="out"/>
<feColorMatrix type="matrix" values="0 0 0 0 0.662745 0 0 0 0 0.670588 0 0 0 0 0.72549 0 0 0 0.34 0"/>
<feBlend mode="normal" in2="BackgroundImageFix" result="effect1_dropShadow_248_4084"/>
<feBlend mode="normal" in="SourceGraphic" in2="effect1_dropShadow_248_4084" result="shape"/>
</filter>
<linearGradient id="paint0_linear_248_4084" x1="187.957" y1="460.5" x2="187.957" y2="508" gradientUnits="userSpaceOnUse">
<stop stop-color="#A9ABB8"/>
<stop offset="1" stop-color="#86899A" stop-opacity="0.84"/>
</linearGradient>
<linearGradient id="paint1_linear_248_4084" x1="175" y1="461" x2="190.5" y2="555.5" gradientUnits="userSpaceOnUse">
<stop stop-color="#858899"/>
<stop offset="1" stop-color="#525463"/>
</linearGradient>
<linearGradient id="paint2_linear_248_4084" x1="564.5" y1="440" x2="565" y2="545" gradientUnits="userSpaceOnUse">
<stop stop-color="#525463"/>
<stop offset="1" stop-color="#525463" stop-opacity="0"/>
</linearGradient>
<linearGradient id="paint3_linear_248_4084" x1="385.553" y1="516" x2="385.553" y2="1222.5" gradientUnits="userSpaceOnUse">
<stop stop-color="#3E404C"/>
<stop offset="1" stop-color="#3E404C" stop-opacity="0"/>
</linearGradient>
<linearGradient id="paint4_linear_248_4084" x1="417.5" y1="96.5" x2="417.5" y2="255.5" gradientUnits="userSpaceOnUse">
<stop stop-color="white"/>
<stop offset="0.58484" stop-color="#E0E0E7"/>
<stop offset="1" stop-color="#B9BBCD"/>
</linearGradient>
<linearGradient id="paint5_linear_248_4084" x1="697.5" y1="505" x2="612.5" y2="647" gradientUnits="userSpaceOnUse">
<stop stop-color="#858899"/>
<stop offset="1" stop-color="#858899" stop-opacity="0"/>
</linearGradient>
<linearGradient id="paint6_linear_248_4084" x1="267.421" y1="553.929" x2="267.421" y2="676.5" gradientUnits="userSpaceOnUse">
<stop stop-color="#525463"/>
<stop offset="1" stop-color="#525463" stop-opacity="0"/>
</linearGradient>
<linearGradient id="paint7_linear_248_4084" x1="313" y1="714.5" x2="313" y2="584.5" gradientUnits="userSpaceOnUse">
<stop stop-color="#525463"/>
<stop offset="1" stop-color="#525463" stop-opacity="0"/>
</linearGradient>
<linearGradient id="paint8_linear_248_4084" x1="390.47" y1="562.456" x2="548.5" y2="562.456" gradientUnits="userSpaceOnUse">
<stop stop-color="#A9ABB8"/>
<stop offset="1" stop-color="#A9ABB8" stop-opacity="0"/>
</linearGradient>
<linearGradient id="paint9_linear_248_4084" x1="433.471" y1="577.442" x2="602.5" y2="577.442" gradientUnits="userSpaceOnUse">
<stop stop-color="#A9ABB8"/>
<stop offset="1" stop-color="#A9ABB8" stop-opacity="0"/>
</linearGradient>
<linearGradient id="paint10_linear_248_4084" x1="460.741" y1="592.318" x2="590.985" y2="592.318" gradientUnits="userSpaceOnUse">
<stop stop-color="#A9ABB8"/>
<stop offset="1" stop-color="#A9ABB8" stop-opacity="0"/>
</linearGradient>
<linearGradient id="paint11_linear_248_4084" x1="461.507" y1="607.009" x2="591.752" y2="607.01" gradientUnits="userSpaceOnUse">
<stop stop-color="#A9ABB8"/>
<stop offset="1" stop-color="#A9ABB8" stop-opacity="0"/>
</linearGradient>
<linearGradient id="paint12_linear_248_4084" x1="461.064" y1="622.246" x2="591.309" y2="622.246" gradientUnits="userSpaceOnUse">
<stop stop-color="#A9ABB8"/>
<stop offset="1" stop-color="#A9ABB8" stop-opacity="0"/>
</linearGradient>
<linearGradient id="paint13_linear_248_4084" x1="414.165" y1="632.346" x2="568" y2="632.346" gradientUnits="userSpaceOnUse">
<stop stop-color="#A9ABB8"/>
<stop offset="1" stop-color="#A9ABB8" stop-opacity="0"/>
</linearGradient>
<linearGradient id="paint14_linear_248_4084" x1="424.893" y1="651.325" x2="571.5" y2="651.325" gradientUnits="userSpaceOnUse">
<stop stop-color="#A9ABB8"/>
<stop offset="1" stop-color="#A9ABB8" stop-opacity="0"/>
</linearGradient>
<linearGradient id="paint15_linear_248_4084" x1="457.93" y1="666.268" x2="592.585" y2="666.268" gradientUnits="userSpaceOnUse">
<stop stop-color="#A9ABB8"/>
<stop offset="1" stop-color="#A9ABB8" stop-opacity="0"/>
</linearGradient>
<linearGradient id="paint16_linear_248_4084" x1="393.427" y1="709.603" x2="595.5" y2="709.604" gradientUnits="userSpaceOnUse">
<stop stop-color="#A9ABB8"/>
<stop offset="1" stop-color="#A9ABB8" stop-opacity="0"/>
</linearGradient>
<linearGradient id="paint17_linear_248_4084" x1="456.499" y1="681.18" x2="591.155" y2="681.18" gradientUnits="userSpaceOnUse">
<stop stop-color="#A9ABB8"/>
<stop offset="1" stop-color="#A9ABB8" stop-opacity="0"/>
</linearGradient>
<linearGradient id="paint18_linear_248_4084" x1="457.283" y1="695.872" x2="591.938" y2="695.872" gradientUnits="userSpaceOnUse">
<stop stop-color="#A9ABB8"/>
<stop offset="1" stop-color="#A9ABB8" stop-opacity="0"/>
</linearGradient>
<linearGradient id="paint19_linear_248_4084" x1="619.5" y1="593.5" x2="663" y2="700" gradientUnits="userSpaceOnUse">
<stop stop-color="#CDCED6"/>
<stop offset="1" stop-color="#A3A5B2" stop-opacity="0.8"/>
</linearGradient>
<linearGradient id="paint20_linear_248_4084" x1="599.248" y1="466.973" x2="599.248" y2="523.196" gradientUnits="userSpaceOnUse">
<stop stop-color="#858899"/>
<stop offset="1" stop-color="#858899" stop-opacity="0"/>
</linearGradient>
<linearGradient id="paint21_linear_248_4084" x1="574.822" y1="466.973" x2="574.822" y2="523.196" gradientUnits="userSpaceOnUse">
<stop stop-color="#858899"/>
<stop offset="1" stop-color="#858899" stop-opacity="0"/>
</linearGradient>
<linearGradient id="paint22_linear_248_4084" x1="549.913" y1="466.973" x2="549.913" y2="523.196" gradientUnits="userSpaceOnUse">
<stop stop-color="#858899"/>
<stop offset="1" stop-color="#858899" stop-opacity="0"/>
</linearGradient>
<linearGradient id="paint23_linear_248_4084" x1="524.318" y1="467" x2="524.318" y2="524" gradientUnits="userSpaceOnUse">
<stop stop-color="#858899"/>
<stop offset="1" stop-color="#858899" stop-opacity="0"/>
</linearGradient>
<clipPath id="clip0_248_4084">
<rect width="731" height="717" fill="white"/>
</clipPath>
</defs>
</svg>
