<svg width="199" height="142" viewBox="0 0 199 142" fill="none" xmlns="http://www.w3.org/2000/svg">
<path d="M167.333 62.1834V62.0687C167.333 60.3314 167.186 58.594 167.012 56.8478L166.56 53.2937V53.1262C164.658 41.2292 159.428 30.1348 151.504 21.1658L151.435 21.0864L151.357 20.9982L150.922 20.5044C145.215 14.1017 138.256 8.98665 130.48 5.46783C122.705 1.95784 114.295 0.123467 105.79 0.0881909L105.747 0C77.9546 0 53.9245 18.8728 46.3663 46.2473C34.1601 46.9528 22.6576 52.2796 14.1437 61.178C11.9631 63.4357 9.98227 65.905 8.25343 68.5331C2.87576 76.682 0.000135058 86.2771 0.000135058 96.084C-0.0172403 103.571 1.64211 110.971 4.85655 117.717C5.89038 119.887 7.0719 121.986 8.4098 123.979C12.8058 130.478 18.6613 135.832 25.4898 139.58C32.7092 143.751 40.867 145.965 49.1724 146H158.654L159.454 145.947H159.732L160.6 145.877C182.493 143.681 199 125.425 199 103.413C199 84.0547 185.829 67.1221 167.333 62.1834ZM160.227 142.128L159.506 142.19H159.176L158.429 142.234H49.1724C41.5012 142.181 33.9603 140.135 27.2881 136.29C20.9722 132.807 15.5511 127.868 11.4679 121.862C10.2342 120.019 9.13088 118.079 8.18392 116.068C5.22143 109.833 3.68371 102.989 3.6924 96.0663C3.6924 87.0003 6.35082 78.1371 11.3289 70.6056C12.9274 68.1627 14.7518 65.8786 16.776 63.7885C25.0901 55.1369 36.4189 50.1542 48.321 49.9072H49.2506C55.3493 23.4411 78.3282 3.73929 105.755 3.73929L105.781 3.80985C113.783 3.81867 121.688 5.53839 128.986 8.84554C136.292 12.1527 142.825 16.9856 148.177 23.0178L148.664 23.5646L148.733 23.644C156.178 32.075 161.096 42.4992 162.894 53.6818C162.894 53.7523 162.894 53.8229 162.937 53.8846C163.372 56.6097 163.615 59.3613 163.676 62.1128C161.278 61.6542 158.846 61.4073 156.404 61.372C150.853 61.3808 145.362 62.5185 140.245 64.7233C135.137 66.9281 130.515 70.147 126.649 74.195L128.743 76.3204C132.331 72.5458 136.622 69.5385 141.375 67.4837C146.127 65.4288 151.235 64.3705 156.404 64.3617C158.976 64.3617 161.539 64.6615 164.049 65.2172C181.903 68.7977 195.342 84.5221 195.342 103.377C195.342 123.547 179.957 140.135 160.227 142.111V142.128Z" fill="#2E2623"/>
<path d="M98 42.0045C98 46.961 95.9877 51 93.5 51C91.0123 51 89 46.979 89 42.0045C89 37.03 91.0208 33 93.5 33C95.9792 33 98 37.03 98 42.0045Z" fill="#2E2623"/>
<path d="M106.5 51C108.988 51 111 46.972 111 42C111 37.028 108.988 33 106.5 33C104.012 33 102 37.028 102 42C102 46.972 104.012 51 106.5 51Z" fill="#2E2623"/>
<path d="M99.8788 62.9861C100.244 63.0046 100.609 63.0046 100.982 62.9861C102.763 62.921 104.51 62.4282 106.1 61.5543C107.681 60.6804 109.071 59.4346 110.157 57.9192L111 56.8222L108.95 55L108.107 56.1063C107.264 57.3056 106.178 58.2818 104.935 58.9791C103.693 59.6763 102.32 60.0668 100.921 60.1319C99.3922 60.1226 97.8717 59.7507 96.4816 59.0628C95.0914 58.3655 93.8577 57.3614 92.8672 56.1156L91.981 55.0558L90 56.9616L90.8949 58.0215C93.1713 60.8664 96.3947 62.6421 99.8788 62.9953" fill="#2E2623"/>
</svg>
