<svg width="497" height="214" viewBox="0 0 497 214" fill="none" xmlns="http://www.w3.org/2000/svg">
<g clip-path="url(#clip0_121_2045)">
<path d="M5.26196 201.514C20.7102 201.118 36.1558 200.707 51.604 200.311L5.26196 201.514Z" fill="white"/>
<path d="M5.26196 201.514C20.7102 201.118 36.1558 200.707 51.604 200.311" stroke="black" stroke-width="5" stroke-miterlimit="10"/>
<path d="M431.596 195.976C452.725 196.412 473.853 196.832 494.965 197.269L431.596 195.976Z" fill="white"/>
<path d="M431.596 195.976C452.725 196.412 473.853 196.832 494.965 197.269" stroke="black" stroke-width="5" stroke-miterlimit="10"/>
<path d="M19.4124 72C23.8022 75.1159 28.1885 78.2466 32.5784 81.3625L19.4124 72Z" fill="white"/>
<path d="M19.4124 72C23.8022 75.1159 28.1885 78.2466 32.5784 81.3625" stroke="black" stroke-width="5" stroke-miterlimit="10"/>
<path d="M229.452 65.6641C230.961 71.7019 232.471 77.7581 233.987 83.7951L229.452 65.6641Z" fill="white"/>
<path d="M229.452 65.6641C230.961 71.7019 232.471 77.7581 233.987 83.7951" stroke="black" stroke-width="5" stroke-miterlimit="10"/>
<path d="M394.529 169.545C400.203 167.314 405.861 165.083 411.535 162.852L394.529 169.545Z" fill="white"/>
<path d="M394.529 169.545C400.203 167.314 405.861 165.083 411.535 162.852" stroke="black" stroke-width="5" stroke-miterlimit="10"/>
<path d="M360.241 112.141C372.608 100.178 384.959 88.1993 397.325 76.2368L360.241 112.141Z" fill="white"/>
<path d="M360.241 112.141C372.608 100.178 384.959 88.1993 397.325 76.2368" stroke="black" stroke-width="5" stroke-miterlimit="10"/>
<path d="M122.721 75.7197C130.399 83.4307 138.078 91.1417 145.773 98.8527L122.721 75.7197Z" fill="white"/>
<path d="M122.721 75.7197C130.399 83.4307 138.078 91.1417 145.773 98.8527" stroke="black" stroke-width="5" stroke-miterlimit="10"/>
<path d="M73.1245 162.028C76.6689 162.028 79.5423 159.155 79.5423 155.61C79.5423 152.066 76.6689 149.192 73.1245 149.192C69.5801 149.192 66.7068 152.066 66.7068 155.61C66.7068 159.155 69.5801 162.028 73.1245 162.028Z" stroke="black" stroke-width="5" stroke-miterlimit="10"/>
<path d="M78.8796 168.445C77.1176 169.237 75.1777 169.674 73.1247 169.674C66.4483 169.674 60.855 165.034 59.4163 158.794" stroke="black" stroke-width="5" stroke-miterlimit="10"/>
<path d="M223.659 52.6999C228.346 52.6999 232.145 48.9002 232.145 44.213C232.145 39.5258 228.346 35.7261 223.659 35.7261C218.971 35.7261 215.172 39.5258 215.172 44.213C215.172 48.9002 218.971 52.6999 223.659 52.6999Z" stroke="black" stroke-width="5" stroke-miterlimit="10"/>
<path d="M254.195 22.5509C257.124 22.5509 259.498 20.177 259.498 17.2486C259.498 14.3202 257.124 11.9463 254.195 11.9463C251.267 11.9463 248.893 14.3202 248.893 17.2486C248.893 20.177 251.267 22.5509 254.195 22.5509Z" stroke="black" stroke-width="5" stroke-miterlimit="10"/>
<path d="M367.225 70.0457C369.627 70.0457 371.574 68.0988 371.574 65.6972C371.574 63.2955 369.627 61.3486 367.225 61.3486C364.823 61.3486 362.876 63.2955 362.876 65.6972C362.876 68.0988 364.823 70.0457 367.225 70.0457Z" stroke="black" stroke-width="5" stroke-miterlimit="10"/>
<path d="M374.419 35.1925C378.392 35.1925 381.612 31.9718 381.612 27.9989C381.612 24.0259 378.392 20.8052 374.419 20.8052C370.446 20.8052 367.225 24.0259 367.225 27.9989C367.225 31.9718 370.446 35.1925 374.419 35.1925Z" stroke="black" stroke-width="5" stroke-miterlimit="10"/>
<path d="M388.305 22.1309C389.065 23.9414 389.485 25.9136 389.485 27.999C389.485 35.2573 384.344 41.3356 377.506 42.7581" stroke="black" stroke-width="5" stroke-miterlimit="10"/>
<path d="M155.634 6.62786C156.794 6.62786 157.735 5.68697 157.735 4.52633C157.735 3.36569 156.794 2.4248 155.634 2.4248C154.473 2.4248 153.532 3.36569 153.532 4.52633C153.532 5.68697 154.473 6.62786 155.634 6.62786Z" stroke="black" stroke-width="5" stroke-miterlimit="10"/>
<path d="M439.631 35.6664C440.803 35.6664 441.754 34.7159 441.754 33.5434C441.754 32.3709 440.803 31.4204 439.631 31.4204C438.458 31.4204 437.508 32.3709 437.508 33.5434C437.508 34.7159 438.458 35.6664 439.631 35.6664Z" stroke="black" stroke-width="5" stroke-miterlimit="10"/>
<path d="M467.322 84.0449C468.697 84.0449 469.812 82.9303 469.812 81.5554C469.812 80.1805 468.697 79.0659 467.322 79.0659C465.947 79.0659 464.833 80.1805 464.833 81.5554C464.833 82.9303 465.947 84.0449 467.322 84.0449Z" stroke="black" stroke-width="5" stroke-miterlimit="10"/>
<path d="M28.4869 133.069C30.9956 133.069 33.0294 131.035 33.0294 128.526C33.0294 126.018 30.9956 123.984 28.4869 123.984C25.9781 123.984 23.9443 126.018 23.9443 128.526C23.9443 131.035 25.9781 133.069 28.4869 133.069Z" stroke="black" stroke-width="5" stroke-miterlimit="10"/>
<path d="M101.042 34.3193V63.579" stroke="black" stroke-width="5" stroke-miterlimit="10"/>
<path d="M112.763 48.9492H89.3225" stroke="black" stroke-width="5" stroke-miterlimit="10"/>
<path d="M437.966 142.16L433.73 171.113" stroke="black" stroke-width="5" stroke-miterlimit="10"/>
<path d="M447.455 158.326L424.273 154.931" stroke="black" stroke-width="5" stroke-miterlimit="10"/>
</g>
<defs>
<clipPath id="clip0_121_2045">
<rect width="497" height="214" fill="white"/>
</clipPath>
</defs>
</svg>
