<svg width="302" height="172" viewBox="0 0 302 172" fill="none" xmlns="http://www.w3.org/2000/svg">
<g clip-path="url(#clip0_196_7478)">
<path d="M241.159 92.1786C237.636 91.3898 234.04 90.9954 230.432 90.9831C223.179 90.9831 216.011 92.4744 209.343 95.3461C202.675 98.2177 196.641 102.42 191.619 107.695L188.681 104.725C194.106 99.0681 200.603 94.5573 207.783 91.4884C214.963 88.4196 222.679 86.8297 230.481 86.8297C233.906 86.879 237.319 87.2118 240.684 87.865C240.598 84.0073 240.257 80.162 239.66 76.366C239.66 76.2797 239.66 76.1811 239.599 76.0825C237.075 60.4548 230.188 45.887 219.729 34.1045L219.632 33.9936L218.949 33.2295C211.44 24.7994 202.273 18.0454 192.021 13.4236C181.769 8.80188 170.677 6.39856 159.462 6.38623C120.99 6.38623 88.7354 33.895 80.178 70.9185H78.8737C62.1734 71.2512 46.2654 78.227 34.6118 90.3176C31.7715 93.2385 29.2116 96.4306 26.9687 99.8446C19.9838 110.37 16.2537 122.756 16.2537 135.426C16.2537 145.101 18.3991 154.665 22.5559 163.379C23.8968 166.189 25.4327 168.888 27.1637 171.476C32.893 179.869 40.4996 186.771 49.3617 191.639C58.7236 197.013 69.2923 199.872 80.0683 199.946H233.37L234.418 199.872H234.881L235.893 199.786C263.528 197.025 285.165 173.842 285.165 145.656C285.08 119.182 266.222 97.2071 241.171 92.2033" fill="white"/>
<path d="M245.792 87.9016V87.7414C245.792 85.3134 245.584 82.8855 245.341 80.4452L244.707 75.4783V75.2441C242.037 58.6181 234.699 43.1136 223.582 30.5793L223.484 30.4684L223.374 30.3452L222.765 29.655C214.756 20.7072 204.992 13.5589 194.082 8.64133C183.172 3.73609 171.372 1.17255 159.438 1.12325L159.377 1C120.381 1 86.6635 27.3749 76.0582 65.6308C58.9313 66.6168 42.7917 74.061 30.8455 86.4966C27.7858 89.6517 25.0065 93.1026 22.5807 96.7754C15.0351 108.163 11.0002 121.573 11.0002 135.278C10.9758 145.742 13.3041 156.082 17.8144 165.51C19.265 168.542 20.9228 171.476 22.8001 174.261C28.9682 183.344 37.1843 190.825 46.7656 196.063C56.8955 201.893 68.3419 204.986 79.9956 205.036H233.614L234.735 204.962H235.125L236.344 204.863C267.063 201.794 290.224 176.282 290.224 145.52C290.224 118.467 271.744 94.8035 245.792 87.9016ZM235.82 199.625L234.809 199.711H234.345L233.297 199.773H79.9956C69.2318 199.699 58.6509 196.84 49.289 191.466C40.4268 186.598 32.8203 179.696 27.091 171.303C25.36 168.727 23.8119 166.016 22.4832 163.206C18.3264 154.492 16.1687 144.928 16.1809 135.253C16.1809 122.583 19.9111 110.197 26.8959 99.6717C29.1389 96.2578 31.6988 93.0657 34.5391 90.1447C46.2049 78.0542 62.1006 71.0907 78.8009 70.7456H80.1053C88.6627 33.7591 120.905 6.22568 159.389 6.22568L159.426 6.32428C170.653 6.3366 181.745 8.73992 191.985 13.3617C202.237 17.9835 211.404 24.7374 218.913 33.1675L219.595 33.9317L219.693 34.0426C230.14 45.825 237.039 60.3928 239.563 76.0206C239.563 76.1192 239.563 76.2178 239.624 76.304C240.233 80.1124 240.574 83.9577 240.66 87.803C237.295 87.1621 233.882 86.817 230.457 86.7677C222.667 86.7801 214.963 88.3699 207.783 91.4511C200.616 94.5323 194.13 99.0308 188.706 104.688L191.644 107.658C196.678 102.383 202.7 98.1804 209.368 95.3088C216.036 92.4371 223.204 90.9581 230.457 90.9458C234.065 90.9458 237.661 91.3649 241.184 92.1413C266.234 97.1451 285.092 119.12 285.092 145.47C285.092 173.657 263.504 196.84 235.82 199.601V199.625Z" fill="#2E2623"/>
<path d="M148.479 59.7399C148.479 66.5308 145.59 72.0646 142.018 72.0646C138.446 72.0646 135.557 66.5554 135.557 59.7399C135.557 52.9243 138.459 47.4028 142.018 47.4028C145.578 47.4028 148.479 52.9243 148.479 59.7399Z" fill="#2E2623"/>
<path d="M160.62 72.0769C164.192 72.0769 167.081 66.5554 167.081 59.7399C167.081 52.9243 164.192 47.4028 160.62 47.4028C157.048 47.4028 154.159 52.9243 154.159 59.7399C154.159 66.5554 157.048 72.0769 160.62 72.0769Z" fill="#2E2623"/>
<path d="M151.173 88.1729C151.684 88.1975 152.196 88.1975 152.721 88.1729C155.22 88.0866 157.67 87.4334 159.901 86.2749C162.119 85.1163 164.07 83.4648 165.593 81.4559L166.776 80.0016L163.899 77.5859L162.716 79.0526C161.534 80.6425 160.01 81.9366 158.267 82.8609C156.524 83.7853 154.598 84.3029 152.635 84.3892C150.49 84.3769 148.357 83.8839 146.406 82.9718C144.456 82.0475 142.725 80.7164 141.335 79.0649L140.092 77.6599L137.312 80.1865L138.568 81.5915C141.762 85.3628 146.284 87.7169 151.173 88.1852" fill="#2E2623"/>
</g>
<defs>
<clipPath id="clip0_196_7478">
<rect width="302" height="172" fill="white"/>
</clipPath>
</defs>
</svg>
