<svg width="848" height="145" viewBox="0 0 848 145" fill="none" xmlns="http://www.w3.org/2000/svg">
<g clip-path="url(#clip0_433_8509)">
<path d="M47.4914 35.8897C49.5866 38.6205 50.6481 41.7413 50.6481 45.2523C50.6481 50.4351 48.8602 54.5034 45.2844 57.4292C41.7086 60.355 36.6801 61.8318 30.2268 61.8318H0V0.947266H29.277C35.5068 0.947266 40.3956 2.34051 43.9435 5.09912C47.4913 7.85774 49.2793 11.7588 49.2793 16.7745C49.2793 20.3412 48.3294 23.3227 46.4577 25.7191C44.586 28.1154 42.0718 29.7316 38.9708 30.5954C42.5467 31.4035 45.3961 33.1868 47.4914 35.9176V35.8897ZM16.9572 25.1339H25.5336C29.8078 25.1339 31.931 23.3784 31.931 19.8675C31.931 16.3565 29.8078 14.4338 25.5336 14.4338H16.9572V25.1339ZM33.2439 42.8281C33.2439 40.989 32.6852 39.5679 31.5678 38.5926C30.4503 37.6173 28.83 37.1158 26.7628 37.1158H16.9851V48.1781H26.8466C31.1208 48.1781 33.2439 46.3947 33.2439 42.8281Z" fill="#3E404C"/>
<path d="M75.0923 14.5174V24.4373H94.5917V37.3108H75.0923V48.2896H97.1618V61.8597H58.1072V0.947266H97.1618V14.5174H75.0923Z" fill="#3E404C"/>
<path d="M122.528 0.947266V61.8318H105.542V0.947266H122.528Z" fill="#3E404C"/>
<path d="M188.792 61.8597H171.807L149.207 27.8368V61.8597H132.221V0.947266H149.207L171.807 35.416V0.947266H188.792V61.8318V61.8597Z" fill="#3E404C"/>
<path d="M237.457 20.9823C236.479 19.3661 235.138 18.14 233.434 17.2762C231.73 16.4124 229.719 15.9945 227.428 15.9945C223.154 15.9945 219.801 17.3877 217.343 20.1463C214.884 22.9049 213.655 26.6388 213.655 31.2922C213.655 36.5308 214.968 40.5155 217.594 43.2462C220.22 45.977 224.048 47.3424 229.076 47.3424C235.026 47.3424 239.273 44.6673 241.815 39.3173H224.746V27.1404H256.453V43.5527C255.112 46.7851 253.185 49.7945 250.615 52.6088C248.045 55.4231 244.804 57.7359 240.865 59.575C236.926 61.3862 232.456 62.3058 227.428 62.3058C221.31 62.3058 215.89 60.9961 211.197 58.3768C206.504 55.7575 202.844 52.1072 200.274 47.3981C197.704 42.7168 196.419 37.3389 196.419 31.2922C196.419 25.2456 197.704 19.9513 200.274 15.27C202.844 10.5887 206.476 6.91053 211.141 4.29124C215.806 1.67195 221.226 0.362305 227.344 0.362305C235.026 0.362305 241.368 2.20138 246.396 5.87953C251.425 9.55769 254.526 14.6012 255.755 20.9823H237.485H237.457Z" fill="#3E404C"/>
<path d="M319.226 51.912H297.575L294.279 61.8318H276.428L298.693 0.947266H318.276L340.457 61.8318H322.522L319.226 51.912ZM314.98 38.9548L308.387 19.2544L301.878 38.9548H314.952H314.98Z" fill="#3E404C"/>
<path d="M362.946 48.9026H381.914V61.8597H345.96V0.947266H362.946V48.9026Z" fill="#3E404C"/>
<path d="M405.465 48.9026H424.433V61.8597H388.479V0.947266H405.465V48.9026Z" fill="#3E404C"/>
<path d="M453.095 57.4019C448.542 54.0303 446.083 49.2097 445.72 42.9401H463.823C463.99 45.0578 464.633 46.6183 465.722 47.5935C466.812 48.5688 468.237 49.0704 469.969 49.0704C471.533 49.0704 472.818 48.6803 473.824 47.9C474.83 47.1198 475.332 46.0331 475.332 44.6677C475.332 42.8844 474.494 41.4911 472.818 40.5159C471.142 39.5406 468.432 38.4539 464.689 37.2278C460.694 35.8903 457.481 34.6085 455.023 33.3825C452.565 32.1564 450.441 30.3174 448.626 27.9488C446.81 25.5525 445.888 22.4316 445.888 18.5863C445.888 14.7409 446.866 11.3136 448.821 8.52708C450.777 5.7406 453.486 3.62288 456.951 2.17391C460.415 0.72494 464.354 0.0283203 468.74 0.0283203C475.835 0.0283203 481.506 1.67234 485.753 4.98825C489.999 8.30416 492.262 12.9576 492.541 18.9485H474.103C474.047 17.1094 473.489 15.7162 472.427 14.7967C471.366 13.8771 469.997 13.4034 468.321 13.4034C467.063 13.4034 466.002 13.7657 465.192 14.518C464.382 15.2704 463.99 16.3292 463.99 17.7225C463.99 18.8649 464.437 19.8681 465.331 20.704C466.225 21.5399 467.343 22.2644 468.656 22.8496C469.997 23.4626 471.952 24.215 474.55 25.1345C478.405 26.472 481.618 27.7817 484.132 29.0634C486.647 30.3731 488.798 32.1843 490.641 34.4971C492.457 36.8377 493.379 39.7914 493.379 43.3581C493.379 46.9248 492.457 50.2407 490.641 53.1108C488.826 55.9808 486.2 58.2657 482.763 59.9376C479.327 61.6095 475.277 62.4455 470.583 62.4455C463.488 62.4455 457.649 60.7736 453.095 57.4019Z" fill="#3E404C"/>
<path d="M518.215 14.5174V24.4373H537.714V37.3108H518.215V48.2896H540.284V61.8597H501.229V0.947266H540.284V14.5174H518.215Z" fill="#3E404C"/>
<path d="M587.328 51.912H565.678L562.381 61.8318H544.53L566.795 0.947266H586.379L608.56 61.8318H590.625L587.328 51.912ZM583.082 38.9548L576.489 19.2544L569.98 38.9548H583.054H583.082Z" fill="#3E404C"/>
<path d="M619.623 57.4019C615.069 54.0303 612.611 49.2097 612.275 42.9401H630.378C630.546 45.0578 631.188 46.6183 632.278 47.5935C633.367 48.5688 634.792 49.0704 636.524 49.0704C638.088 49.0704 639.373 48.6803 640.379 47.9C641.385 47.1198 641.888 46.0331 641.888 44.6677C641.888 42.8844 641.05 41.4911 639.373 40.5159C637.697 39.5406 634.987 38.4539 631.244 37.2278C627.249 35.8903 624.036 34.6085 621.578 33.3825C619.12 32.1564 616.997 30.3174 615.181 27.9488C613.365 25.5525 612.443 22.4316 612.443 18.5863C612.443 14.7409 613.421 11.3136 615.376 8.52708C617.332 5.7406 620.042 3.62288 623.506 2.17391C626.97 0.72494 630.881 0.0283203 635.295 0.0283203C642.391 0.0283203 648.062 1.67234 652.308 4.98825C656.554 8.30416 658.817 12.9576 659.096 18.9485H640.658C640.603 17.1094 640.044 15.7162 638.982 14.7967C637.921 13.8771 636.552 13.4034 634.876 13.4034C633.591 13.4034 632.557 13.7657 631.747 14.518C630.937 15.2704 630.546 16.3292 630.546 17.7225C630.546 18.8649 630.993 19.8681 631.887 20.704C632.78 21.5399 633.898 22.2644 635.211 22.8496C636.552 23.4626 638.507 24.215 641.105 25.1345C644.961 26.472 648.173 27.7817 650.688 29.0634C653.202 30.3731 655.353 32.1843 657.169 34.4971C658.985 36.8377 659.906 39.7914 659.906 43.3581C659.906 46.9248 658.985 50.2407 657.169 53.1108C655.353 55.9808 652.727 58.2657 649.291 59.9376C645.855 61.6095 641.804 62.4455 637.111 62.4455C630.015 62.4455 624.176 60.7736 619.623 57.4019Z" fill="#3E404C"/>
<path d="M681.277 58.4325C676.472 55.7575 672.701 52.0514 669.879 47.2866C667.086 42.5217 665.689 37.1716 665.689 31.1807C665.689 25.1898 667.086 19.8119 669.879 15.0749C672.673 10.31 676.472 6.63182 681.277 3.98467C686.054 1.33751 691.334 0 697.033 0C702.732 0 708.068 1.33751 712.845 3.98467C717.622 6.63182 721.366 10.3378 724.159 15.0749C726.953 19.8119 728.322 25.1898 728.322 31.1807C728.322 37.1716 726.925 42.5495 724.159 47.2866C721.394 52.0236 717.594 55.7575 712.817 58.4325C708.012 61.1075 702.76 62.445 697.061 62.445C691.362 62.445 686.082 61.1075 681.305 58.4325H681.277ZM707.314 42.4938C709.828 39.6795 711.085 35.8899 711.085 31.1807C711.085 26.4716 709.828 22.5426 707.314 19.7283C704.8 16.9418 701.391 15.5486 697.061 15.5486C692.731 15.5486 689.239 16.9418 686.753 19.7283C684.266 22.5148 683.037 26.3322 683.037 31.1807C683.037 36.0292 684.266 39.7352 686.753 42.5495C689.239 45.336 692.675 46.7293 697.061 46.7293C701.447 46.7293 704.8 45.3082 707.314 42.4938Z" fill="#3E404C"/>
<path d="M792.491 61.8597H775.506L752.906 27.8368V61.8597H735.92V0.947266H752.906L775.506 35.416V0.947266H792.491V61.8318V61.8597Z" fill="#3E404C"/>
<path d="M807.716 57.4019C803.163 54.0303 800.704 49.2097 800.369 42.9401H818.472C818.639 45.0578 819.282 46.6183 820.371 47.5935C821.461 48.5688 822.886 49.0704 824.618 49.0704C826.182 49.0704 827.467 48.6803 828.473 47.9C829.479 47.1198 829.981 46.0331 829.981 44.6677C829.981 42.8844 829.143 41.4911 827.467 40.5159C825.791 39.5406 823.081 38.4539 819.338 37.2278C815.343 35.8903 812.13 34.6085 809.672 33.3825C807.213 32.1564 805.09 30.3174 803.275 27.9488C801.459 25.5525 800.537 22.4316 800.537 18.5863C800.537 14.7409 801.514 11.3136 803.47 8.52708C805.426 5.7406 808.135 3.62288 811.599 2.17391C815.063 0.72494 818.975 0.0283203 823.388 0.0283203C830.484 0.0283203 836.155 1.67234 840.402 4.98825C844.648 8.30416 846.911 12.9576 847.19 18.9485H828.752C828.696 17.1094 828.138 15.7162 827.076 14.7967C826.014 13.8771 824.646 13.4034 822.969 13.4034C821.684 13.4034 820.651 13.7657 819.841 14.518C819.03 15.2704 818.639 16.3292 818.639 17.7225C818.639 18.8649 819.086 19.8681 819.98 20.704C820.874 21.5399 821.992 22.2644 823.305 22.8496C824.646 23.4626 826.601 24.215 829.199 25.1345C833.054 26.472 836.267 27.7817 838.781 29.0634C841.296 30.3731 843.447 32.1843 845.262 34.4971C847.078 36.8377 848 39.7914 848 43.3581C848 46.9248 847.078 50.2407 845.262 53.1108C843.447 55.9808 840.821 58.2657 837.384 59.9376C833.948 61.6095 829.898 62.4455 825.204 62.4455C818.109 62.4455 812.27 60.7736 807.716 57.4019Z" fill="#3E404C"/>
<path d="M210.051 83.3926L195.078 144.277H174.209L165.801 106.966L157.224 144.277H136.356L121.55 83.3926H139.904L147 125.023L156.61 83.3926H175.243L184.602 124.688L191.697 83.3926H210.051Z" fill="#3E404C"/>
<path d="M234.216 83.3926V144.277H217.231V83.3926H234.216Z" fill="#3E404C"/>
<path d="M289.893 83.3926V96.8791H273.606V144.305H256.621V96.8791H240.502V83.3926H289.865H289.893Z" fill="#3E404C"/>
<path d="M350.877 83.3926V144.277H333.892V119.84H313.191V144.277H296.206V83.3926H313.191V106.27H333.892V83.3926H350.877Z" fill="#3E404C"/>
<path d="M416.08 103.428C415.102 101.811 413.761 100.585 412.057 99.7215C410.353 98.8577 408.342 98.4398 406.051 98.4398C401.777 98.4398 398.424 99.833 395.966 102.592C393.508 105.35 392.278 109.084 392.278 113.738C392.278 118.976 393.591 122.961 396.217 125.692C398.843 128.422 402.671 129.788 407.699 129.788C413.65 129.788 417.896 127.113 420.438 121.763H403.369V109.586H435.077V125.998C433.736 129.23 431.808 132.24 429.238 135.054C426.668 137.868 423.427 140.181 419.488 142.02C415.549 143.832 411.079 144.751 406.079 144.751C399.961 144.751 394.541 143.441 389.848 140.822C385.155 138.203 381.495 134.553 378.925 129.843C376.355 125.162 375.07 119.784 375.07 113.738C375.07 107.691 376.355 102.397 378.925 97.7153C381.495 93.034 385.127 89.3558 389.792 86.7366C394.457 84.1173 399.877 82.8076 405.995 82.8076C413.678 82.8076 420.019 84.6467 425.047 88.3248C430.076 92.003 433.177 97.0465 434.406 103.428H416.136H416.08Z" fill="#3E404C"/>
<path d="M456.168 140.878C451.363 138.203 447.592 134.497 444.77 129.732C441.977 124.967 440.58 119.617 440.58 113.626C440.58 107.635 441.977 102.257 444.77 97.5202C447.564 92.7553 451.363 89.0771 456.168 86.43C460.945 83.7828 466.225 82.4453 471.924 82.4453C477.623 82.4453 482.959 83.7828 487.736 86.43C492.513 89.0771 496.257 92.7832 499.05 97.5202C501.844 102.257 503.213 107.635 503.213 113.626C503.213 119.617 501.816 124.995 499.05 129.732C496.285 134.469 492.485 138.203 487.708 140.878C482.903 143.553 477.651 144.89 471.952 144.89C466.253 144.89 460.973 143.553 456.196 140.878H456.168ZM482.205 124.939C484.719 122.125 485.976 118.335 485.976 113.626C485.976 108.917 484.719 104.988 482.205 102.174C479.691 99.3871 476.282 97.9939 471.952 97.9939C467.622 97.9939 464.13 99.3871 461.644 102.174C459.158 104.96 457.928 108.778 457.928 113.626C457.928 118.474 459.158 122.181 461.644 124.995C464.13 127.781 467.566 129.175 471.952 129.175C476.338 129.175 479.691 127.753 482.205 124.939Z" fill="#3E404C"/>
<path d="M524.332 140.878C519.527 138.203 515.756 134.497 512.935 129.732C510.141 124.967 508.744 119.617 508.744 113.626C508.744 107.635 510.141 102.257 512.935 97.5202C515.728 92.7553 519.527 89.0771 524.332 86.43C529.11 83.7828 534.389 82.4453 540.088 82.4453C545.787 82.4453 551.123 83.7828 555.9 86.43C560.677 89.0771 564.421 92.7832 567.214 97.5202C570.008 102.257 571.377 107.635 571.377 113.626C571.377 119.617 569.98 124.995 567.214 129.732C564.449 134.469 560.649 138.203 555.872 140.878C551.067 143.553 545.815 144.89 540.116 144.89C534.417 144.89 529.137 143.553 524.36 140.878H524.332ZM550.369 124.939C552.883 122.125 554.14 118.335 554.14 113.626C554.14 108.917 552.883 104.988 550.369 102.174C547.855 99.3871 544.446 97.9939 540.116 97.9939C535.786 97.9939 532.294 99.3871 529.808 102.174C527.322 104.96 526.092 108.778 526.092 113.626C526.092 118.474 527.322 122.181 529.808 124.995C532.294 127.781 535.73 129.175 540.116 129.175C544.502 129.175 547.855 127.753 550.369 124.939Z" fill="#3E404C"/>
<path d="M609.872 144.305L597.748 121.846H595.932V144.305H578.947V83.4209H605.71C610.627 83.4209 614.761 84.2847 618.17 85.9566C621.578 87.6563 624.148 89.997 625.88 92.9507C627.612 95.9043 628.478 99.2481 628.478 102.926C628.478 107.078 627.333 110.728 625.07 113.849C622.779 116.998 619.455 119.227 615.069 120.537L628.841 144.278H609.872V144.305ZM595.932 110.283H604.341C606.66 110.283 608.392 109.725 609.537 108.639C610.683 107.552 611.269 105.964 611.269 103.902C611.269 101.951 610.683 100.391 609.481 99.276C608.28 98.1614 606.576 97.6041 604.341 97.6041H595.932V110.31V110.283Z" fill="#3E404C"/>
<path d="M707.481 83.3926V144.277H690.496V110.672L678.986 144.277H664.795L653.201 110.421V144.277H636.216V83.3926H656.749L672.086 122.961L687.06 83.3926H707.509H707.481Z" fill="#3E404C"/>
</g>
<defs>
<clipPath id="clip0_433_8509">
<rect width="848" height="169" fill="white"/>
</clipPath>
</defs>
</svg>
