<svg width="1440" height="207" viewBox="0 0 1440 207" fill="none" xmlns="http://www.w3.org/2000/svg">
<path fill-rule="evenodd" clip-rule="evenodd" d="M1440 179.901V0H0V179.584C29.4774 197.008 63.8273 207 100.5 207C158.78 207 211.194 181.763 247.508 141.573C267.676 155.108 291.92 163 318 163C355.7 163 389.563 146.509 412.822 120.32C444.596 150.39 487.406 168.818 534.5 168.818C580.069 168.818 621.627 151.564 653.057 123.204C672.678 147.363 702.546 162.789 736 162.789C765.585 162.789 792.366 150.725 811.735 131.225C843.414 160.788 885.856 178.866 932.5 178.866C968.494 178.866 1001.99 168.101 1029.96 149.601C1044.51 158.129 1061.44 163.015 1079.5 163.015C1095.32 163.015 1110.27 159.265 1123.52 152.603C1148.17 174.041 1180.32 187.015 1215.5 187.015C1247.03 187.015 1276.13 176.594 1299.57 158.998C1323.01 178.969 1353.36 191.015 1386.5 191.015C1405.51 191.015 1423.6 187.051 1440 179.901Z" fill="white"/>
</svg>
