<svg width="1440" height="207" viewBox="0 0 1440 207" fill="none" xmlns="http://www.w3.org/2000/svg">
<path fill-rule="evenodd" clip-rule="evenodd" d="M1440 27.0992V207H0V27.4155C29.4774 9.99248 63.8273 0 100.5 0C158.78 0 211.194 25.2367 247.508 65.4273C267.676 51.8921 291.92 44 318 44C355.7 44 389.563 60.4914 412.822 86.6805C444.596 56.6097 487.406 38.1818 534.5 38.1818C580.069 38.1818 621.627 55.4357 653.057 83.7963C672.678 59.6369 702.546 44.2105 736 44.2105C765.585 44.2105 792.366 56.2751 811.735 75.775C843.414 46.2119 885.856 28.134 932.5 28.134C968.494 28.134 1001.99 38.8988 1029.96 57.3992C1044.51 48.871 1061.44 43.9854 1079.5 43.9854C1095.32 43.9854 1110.27 47.7346 1123.52 54.3975C1148.17 32.9586 1180.32 19.9854 1215.5 19.9854C1247.03 19.9854 1276.13 30.4058 1299.57 48.0019C1323.01 28.0305 1353.36 15.9854 1386.5 15.9854C1405.51 15.9854 1423.6 19.9492 1440 27.0992Z" fill="white"/>
</svg>
